<svg width="24" height="24" viewBox="0 0 24 24" fill="none" xmlns="http://www.w3.org/2000/svg">
<path d="M17.6531 20.4616C17.9063 20.1554 18.0282 19.7615 17.9922 19.3658C17.9563 18.9702 17.7654 18.6047 17.4612 18.3491L9.8436 12.0002L17.4611 5.65119C17.7665 5.39632 17.9581 5.03058 17.9938 4.63442C18.0295 4.23827 17.9064 3.84415 17.6515 3.53878C17.3967 3.2334 17.0309 3.04178 16.6348 3.00606C16.2386 2.97035 15.8445 3.09347 15.5391 3.34834L6.53873 10.8488C6.37 10.9895 6.23425 11.1655 6.1411 11.3645C6.04794 11.5635 5.99966 11.7805 5.99966 12.0002C5.99966 12.2199 6.04794 12.4369 6.1411 12.6359C6.23425 12.8348 6.37 13.0109 6.53873 13.1516L15.5393 20.652C15.8449 20.9068 16.2392 21.0299 16.6356 20.9942C17.0319 20.9585 17.3979 20.7669 17.6531 20.4616Z" fill="white"/>
</svg>
