<svg width="24" height="24" viewBox="0 0 24 24" fill="none" xmlns="http://www.w3.org/2000/svg">
<path d="M20.5078 18.1215L14.3859 11.9996L20.5078 5.87774C21.1687 5.2168 21.1687 4.15273 20.5078 3.4918C19.8469 2.83086 18.7828 2.83086 18.1219 3.4918L12 9.61367L5.8781 3.4918C5.21716 2.83086 4.1531 2.83086 3.49216 3.4918C2.83123 4.15273 2.83123 5.2168 3.49216 5.87774L9.61404 11.9996L3.49216 18.1215C2.83123 18.7824 2.83123 19.8465 3.49216 20.5074C4.1531 21.1684 5.21716 21.1684 5.8781 20.5074L12 14.3856L18.1219 20.5074C18.7828 21.1684 19.8469 21.1684 20.5078 20.5074C21.164 19.8465 21.164 18.7777 20.5078 18.1215Z" fill="white"/>
</svg>
