<svg width="24" height="24" viewBox="0 0 24 24" fill="none" xmlns="http://www.w3.org/2000/svg">
<g clip-path="url(#clip0_1_4416)">
<path d="M12 23.2992C18.2408 23.2992 23.3 18.24 23.3 11.9992C23.3 5.7584 18.2408 0.699219 12 0.699219C5.75919 0.699219 0.700012 5.7584 0.700012 11.9992C0.700012 18.24 5.75919 23.2992 12 23.2992Z" stroke="white" stroke-width="1.5" stroke-miterlimit="10" stroke-linecap="round" stroke-linejoin="round"/>
<path d="M12 14.8984C8.5 14.8984 5.5 16.8984 4 19.8984C6 21.9984 8.9 23.1984 12 23.1984C15.1 23.1984 18 21.8984 20 19.8984C18.5 16.9984 15.5 14.8984 12 14.8984Z" stroke="white" stroke-width="1.5" stroke-miterlimit="10" stroke-linecap="round" stroke-linejoin="round"/>
<path d="M12 12.2996C13.9882 12.2996 15.6 10.6878 15.6 8.69961C15.6 6.71138 13.9882 5.09961 12 5.09961C10.0118 5.09961 8.40002 6.71138 8.40002 8.69961C8.40002 10.6878 10.0118 12.2996 12 12.2996Z" stroke="white" stroke-width="1.5" stroke-miterlimit="10" stroke-linecap="round" stroke-linejoin="round"/>
</g>
<defs>
<clipPath id="clip0_1_4416">
<rect width="24" height="24" fill="white"/>
</clipPath>
</defs>
</svg>
