<svg width="24" height="24" viewBox="0 0 24 24" fill="none" xmlns="http://www.w3.org/2000/svg">
<g clip-path="url(#clip0_1_4976)">
<path d="M15.3609 19.1566L8.07656 16.466C7.62188 16.3348 7.21875 16.0816 7.21875 15.6082V8.18321C7.21875 7.70977 7.59375 7.47539 8.07656 7.32539L15.3609 4.63477C15.8344 4.63477 16.2188 5.01914 16.2188 5.49258V18.3035C16.2188 18.7723 15.8344 19.1566 15.3609 19.1566Z" fill="#1A94AE"/>
<path d="M6.1969 8.07031H0.885962C0.389087 8.07031 -0.0140381 8.46406 -0.0140381 8.86719V14.9141C-0.0140381 15.3219 0.389087 15.6547 0.885962 15.6547H6.1969V8.07031Z" fill="white"/>
<path d="M4.70629 20.9523H3.83441C3.59066 20.9523 3.3891 20.7602 3.3891 20.5164V16.7945C3.3891 16.5508 3.59066 16.3633 3.83441 16.3633H4.70629C4.95004 16.3633 5.1516 16.5508 5.1516 16.7945V20.5164C5.1516 20.7602 4.95004 20.9523 4.70629 20.9523Z" fill="#1A94AE"/>
<path d="M23.2547 12.6797H17.8641C17.4516 12.6797 17.1141 12.3422 17.1141 11.9297C17.1141 11.5172 17.4516 11.1797 17.8641 11.1797H23.2547C23.6672 11.1797 24.0047 11.5172 24.0047 11.9297C24.0047 12.3422 23.6672 12.6797 23.2547 12.6797Z" fill="#1A94AE"/>
<path d="M22.4672 18.5004L18.4641 14.8957C18.1547 14.6192 17.6813 14.6426 17.4047 14.952C17.1282 15.2614 17.1516 15.7348 17.461 16.0114L21.4641 19.6161C21.7735 19.8926 22.2469 19.8692 22.5235 19.5598C22.8 19.2551 22.7719 18.777 22.4672 18.5004Z" fill="white"/>
<path d="M22.4672 5.4977L18.4641 9.10238C18.1547 9.37894 17.6813 9.35551 17.4047 9.04613C17.1282 8.73676 17.1516 8.26332 17.461 7.98676L21.4641 4.38207C21.7735 4.10551 22.2469 4.12895 22.5235 4.43832C22.8 4.74301 22.7719 5.22113 22.4672 5.4977Z" fill="white"/>
</g>
<defs>
<clipPath id="clip0_1_4976">
<rect width="24" height="24" fill="white"/>
</clipPath>
</defs>
</svg>
