<svg width="24" height="24" viewBox="0 0 24 24" fill="none" xmlns="http://www.w3.org/2000/svg">
<path d="M12 2C10.0222 2 8.08879 2.58649 6.4443 3.6853C4.79981 4.78412 3.51809 6.3459 2.76121 8.17317C2.00433 10.0004 1.8063 12.0111 2.19215 13.9509C2.578 15.8907 3.53041 17.6725 4.92894 19.0711C6.32746 20.4696 8.10929 21.422 10.0491 21.8079C11.9889 22.1937 13.9996 21.9957 15.8268 21.2388C17.6541 20.4819 19.2159 19.2002 20.3147 17.5557C21.4135 15.9112 22 13.9778 22 12C22 10.6868 21.7413 9.38642 21.2388 8.17317C20.7363 6.95991 19.9997 5.85752 19.0711 4.92893C18.1425 4.00035 17.0401 3.26375 15.8268 2.7612C14.6136 2.25866 13.3132 2 12 2ZM11.5 5C11.7967 5 12.0867 5.08797 12.3334 5.2528C12.58 5.41762 12.7723 5.65189 12.8858 5.92597C12.9994 6.20006 13.0291 6.50166 12.9712 6.79264C12.9133 7.08361 12.7704 7.35088 12.5607 7.56066C12.3509 7.77044 12.0836 7.9133 11.7926 7.97118C11.5017 8.02906 11.2001 7.99935 10.926 7.88582C10.6519 7.77229 10.4176 7.58003 10.2528 7.33336C10.088 7.08668 10 6.79667 10 6.5C10 6.10218 10.158 5.72064 10.4393 5.43934C10.7206 5.15804 11.1022 5 11.5 5ZM14 18H13C12.4696 18 11.9609 17.7893 11.5858 17.4142C11.2107 17.0391 11 16.5304 11 16V12C10.7348 12 10.4804 11.8946 10.2929 11.7071C10.1054 11.5196 10 11.2652 10 11C10 10.7348 10.1054 10.4804 10.2929 10.2929C10.4804 10.1054 10.7348 10 11 10H12C12.2652 10 12.5196 10.1054 12.7071 10.2929C12.8946 10.4804 13 10.7348 13 11V16H14C14.2652 16 14.5196 16.1054 14.7071 16.2929C14.8946 16.4804 15 16.7348 15 17C15 17.2652 14.8946 17.5196 14.7071 17.7071C14.5196 17.8946 14.2652 18 14 18Z" fill="#1A94AE"/>
</svg>
