<svg width="48" height="48" viewBox="0 0 48 48" fill="none" xmlns="http://www.w3.org/2000/svg">
<path d="M32.4146 31.5476C32.3604 31.5465 32.3083 31.5413 32.2572 31.5314C32.1489 31.9861 31.7374 32.332 31.2531 32.333H11.6083C11.0437 32.332 10.5756 31.8643 10.5745 31.2991V18.1585H32.2869V18.8133C32.3313 18.806 32.376 18.8005 32.4224 18.8005H33.5266V16.7008C33.5255 15.4453 32.5084 14.4287 31.2531 14.4258H11.6083C10.3526 14.4286 9.33542 15.4453 9.33331 16.7008V31.2992C9.33542 32.5538 10.3526 33.5716 11.6083 33.5737H31.2532C32.4234 33.5715 33.376 32.684 33.5016 31.5466L32.4188 31.5477H32.4146V31.5476ZM31.0115 15.8835C31.2973 15.8835 31.5287 16.115 31.5287 16.401C31.5287 16.6859 31.2974 16.9177 31.0115 16.9177C30.726 16.9177 30.4948 16.6859 30.4948 16.401C30.4948 16.115 30.726 15.8835 31.0115 15.8835ZM26.949 15.915H29.4907C29.7605 15.915 29.9776 16.1322 29.9776 16.401C29.9776 16.6692 29.7604 16.8869 29.4907 16.8869H26.949C26.6802 16.8869 26.4626 16.6692 26.4626 16.401C26.4625 16.1322 26.6802 15.915 26.949 15.915Z" fill="#1A94AE"/>
<path d="M33.7271 22.6425C33.5015 22.5793 33.2635 22.543 33.0176 22.543C32.8639 22.543 32.7155 22.5591 32.5697 22.5842C32.0223 22.6781 31.5327 22.9375 31.1572 23.3133C30.6801 23.7893 30.3873 24.4469 30.3873 25.1732C30.3873 25.9003 30.6801 26.5576 31.1572 27.0331C31.4983 27.3743 31.9322 27.6191 32.4176 27.7325C32.6109 27.7774 32.8104 27.8034 33.0176 27.8034C33.2395 27.8034 33.4552 27.7727 33.6614 27.7205C34.129 27.6028 34.5468 27.3632 34.877 27.0331C35.3536 26.5576 35.6477 25.9003 35.6477 25.1732C35.6477 24.4469 35.3536 23.7893 34.877 23.3133C34.5629 22.9985 34.1677 22.7662 33.7271 22.6425ZM33.7271 25.8488C33.5478 26.0368 33.2969 26.1551 33.0176 26.1551C32.8552 26.1551 32.7035 26.1119 32.5697 26.0421C32.2541 25.8785 32.0363 25.5525 32.0363 25.1733C32.0363 24.7931 32.2541 24.4678 32.5697 24.3043C32.7036 24.2347 32.8552 24.1918 33.0176 24.1918C33.2968 24.1918 33.5477 24.3098 33.7271 24.4972C33.8958 24.6733 34 24.9103 34 25.1733C34 25.4353 33.8958 25.6733 33.7271 25.8488Z" fill="#1A94AE"/>
<path d="M38.5114 24.4055L37.3229 24.264C37.2104 23.7234 36.9964 23.2195 36.7031 22.7721L37.4448 21.8309C37.498 21.7651 37.4927 21.6609 37.4312 21.6007L36.59 20.7585C36.5302 20.6992 36.4265 20.6924 36.3583 20.7453L35.4181 21.487C34.9708 21.1947 34.4677 20.9809 33.9265 20.868L33.7855 19.679C33.7812 19.6366 33.7594 19.5983 33.7272 19.5701C33.6965 19.5431 33.6558 19.5254 33.6126 19.5254H32.5699H32.4225C32.3376 19.5254 32.2601 19.5941 32.2491 19.6791L32.1095 20.8681C31.5678 20.9811 31.0641 21.1949 30.6173 21.4872L29.6756 20.7455C29.6099 20.6926 29.5063 20.6994 29.4449 20.7587L28.6042 21.6009C28.5433 21.6611 28.5366 21.7653 28.5907 21.8316L29.3313 22.7722C29.0397 23.2196 28.8251 23.7235 28.7126 24.2641L27.5241 24.4056C27.4386 24.4152 27.3699 24.493 27.3699 24.5777V25.7678C27.3699 25.8532 27.4387 25.9313 27.5241 25.9416L28.7126 26.0812C28.8251 26.623 29.0397 27.1261 29.3313 27.575L28.849 28.1876L28.5908 28.5146C28.5367 28.5823 28.5434 28.6854 28.6043 28.7448L29.2043 29.3458L29.2158 29.3584L29.445 29.5865C29.5054 29.6469 29.6101 29.6531 29.6768 29.6L29.9845 29.3584L29.9986 29.3458L30.6174 28.8583C30.9283 29.062 31.2675 29.2229 31.6268 29.3438C31.6399 29.348 31.6519 29.3542 31.6648 29.3584C31.8096 29.4052 31.9575 29.4464 32.1096 29.4781L32.2492 30.6667C32.2601 30.7516 32.3377 30.8199 32.4226 30.8208L33.6127 30.8198C33.697 30.8208 33.7767 30.7515 33.7856 30.6666L33.9268 29.478C34.0773 29.4463 34.2252 29.4051 34.3711 29.3583C34.744 29.2374 35.0972 29.0691 35.4184 28.8582L36.0508 29.3572L36.3585 29.5998C36.4268 29.653 36.5305 29.6467 36.5903 29.5863L36.82 29.3571L37.4315 28.7446C37.493 28.6852 37.4982 28.5821 37.4451 28.5144L36.7034 27.5748C36.9967 27.1259 37.2106 26.6228 37.3231 26.081L38.5117 25.9415C38.5951 25.9311 38.6669 25.8529 38.6669 25.7676V24.5775C38.6666 24.493 38.5948 24.4152 38.5114 24.4055ZM33.4151 28.3135C33.2843 28.3302 33.152 28.3416 33.0176 28.3416C32.6229 28.3416 32.2478 28.2656 31.8999 28.1344C30.7024 27.6823 29.8499 26.5282 29.8499 25.1729C29.8499 23.5757 31.0332 22.2586 32.5697 22.0403C32.716 22.019 32.8645 22.0049 33.0176 22.0049C33.2614 22.0049 33.4989 22.0353 33.7271 22.0879C35.1338 22.4106 36.1854 23.6681 36.1854 25.1728C36.1855 26.7864 34.9771 28.1177 33.4151 28.3135Z" fill="#1A94AE"/>
<path d="M16.0198 23L14.5552 27.5091H15.888L16.1156 26.6675H17.5744L17.7953 27.5091H19.1223L17.6395 23H16.0198ZM16.3677 25.6716C16.5541 24.9674 16.674 24.4956 16.7281 24.2563C16.7822 24.0166 16.8187 23.8445 16.8374 23.7406C16.8578 23.8532 16.9004 24.0391 16.9645 24.299C17.0292 24.5591 17.0844 24.7716 17.1291 24.9352L17.3229 25.6716H16.3677Z" fill="#1A94AE"/>
<path d="M21.4771 23.0176H19.9219V27.5082H21.1355V26.0182H21.4771C22.0209 26.0182 22.4412 25.8812 22.7365 25.6082C23.0328 25.3347 23.1813 24.9478 23.1813 24.4458C23.1813 23.9892 23.0386 23.6372 22.7542 23.3892C22.4699 23.1416 22.0438 23.0176 21.4771 23.0176ZM21.7907 24.876C21.6844 24.978 21.5386 25.0292 21.3568 25.0292H21.1354V23.9974H21.4489C21.7843 23.9974 21.9525 24.1492 21.9525 24.452C21.9526 24.6323 21.8985 24.7739 21.7907 24.876Z" fill="#1A94AE"/>
<path d="M25.4302 23.0176H24.2115V27.5082H25.4302V23.0176Z" fill="#1A94AE"/>
</svg>
