<svg width="18" height="18" viewBox="0 0 18 18" fill="none" xmlns="http://www.w3.org/2000/svg">
<g opacity="0.5">
<path d="M4.76018 2.65379C4.57032 2.88346 4.47892 3.17885 4.50588 3.47562C4.53283 3.77238 4.67597 4.04647 4.90411 4.23817L10.6173 8.99986L4.9042 13.7616C4.67517 13.9528 4.53145 14.2271 4.50467 14.5242C4.47788 14.8213 4.57022 15.1169 4.76138 15.3459C4.95253 15.575 5.22683 15.7187 5.52395 15.7455C5.82107 15.7722 6.11665 15.6799 6.34569 15.4887L13.096 9.86343C13.2225 9.7579 13.3243 9.62585 13.3942 9.47662C13.4641 9.32739 13.5003 9.16463 13.5003 8.99986C13.5003 8.83509 13.4641 8.67233 13.3942 8.5231C13.3243 8.37387 13.2225 8.24182 13.096 8.13629L6.34559 2.51097C6.11633 2.31989 5.82059 2.2276 5.52334 2.25438C5.22609 2.28115 4.95161 2.42481 4.76018 2.65379Z" fill="white"/>
</g>
</svg>
