<svg width="24" height="24" viewBox="0 0 24 24" fill="none" xmlns="http://www.w3.org/2000/svg">
<path fill-rule="evenodd" clip-rule="evenodd" d="M7.3125 5.625C7.83027 5.625 8.25 6.04473 8.25 6.5625V17.4375C8.25 17.9553 7.83027 18.375 7.3125 18.375C6.79473 18.375 6.375 17.9553 6.375 17.4375V6.5625C6.375 6.04473 6.79473 5.625 7.3125 5.625Z" fill="#1A94AE"/>
<path fill-rule="evenodd" clip-rule="evenodd" d="M11.8125 5.625C12.3303 5.625 12.75 6.04473 12.75 6.5625V17.4375C12.75 17.9553 12.3303 18.375 11.8125 18.375C11.2947 18.375 10.875 17.9553 10.875 17.4375V6.5625C10.875 6.04473 11.2947 5.625 11.8125 5.625Z" fill="#1A94AE"/>
<path fill-rule="evenodd" clip-rule="evenodd" d="M16.3125 5.625C16.8303 5.625 17.25 6.04473 17.25 6.5625V17.4375C17.25 17.9553 16.8303 18.375 16.3125 18.375C15.7947 18.375 15.375 17.9553 15.375 17.4375V6.5625C15.375 6.04473 15.7947 5.625 16.3125 5.625Z" fill="#1A94AE"/>
<path fill-rule="evenodd" clip-rule="evenodd" d="M6.1875 14.625H8.4375C8.95527 14.625 9.375 15.0447 9.375 15.5625C9.375 16.0803 8.95527 16.5 8.4375 16.5H6.1875C5.66973 16.5 5.25 16.0803 5.25 15.5625C5.25 15.0447 5.66973 14.625 6.1875 14.625Z" fill="#1A94AE"/>
<path fill-rule="evenodd" clip-rule="evenodd" d="M10.6875 11.25H12.9375C13.4553 11.25 13.875 11.6697 13.875 12.1875C13.875 12.7053 13.4553 13.125 12.9375 13.125H10.6875C10.1697 13.125 9.75 12.7053 9.75 12.1875C9.75 11.6697 10.1697 11.25 10.6875 11.25Z" fill="#1A94AE"/>
<path fill-rule="evenodd" clip-rule="evenodd" d="M15.1875 8.25H17.4375C17.9553 8.25 18.375 8.66973 18.375 9.1875C18.375 9.70527 17.9553 10.125 17.4375 10.125H15.1875C14.6697 10.125 14.25 9.70527 14.25 9.1875C14.25 8.66973 14.6697 8.25 15.1875 8.25Z" fill="#1A94AE"/>
</svg>
