<svg width="24" height="24" viewBox="0 0 24 24" fill="none" xmlns="http://www.w3.org/2000/svg">
<path d="M0 4.5V19.5H24V4.5H0ZM22 17.5H7.5V15H5.5V17.5H2V6.5H5.5V9H7.5V6.5H22V17.5Z" fill="#1A94AE"/>
<path d="M7.5 10.5H5.5V13.5H7.5V10.5Z" fill="#1A94AE"/>
<path d="M15.45 11.3553C14.8385 11.0763 14.4635 10.8843 14.326 10.7788C14.188 10.6738 14.12 10.5538 14.12 10.4208C14.12 10.2968 14.1735 10.1928 14.2825 10.1093C14.391 10.0258 14.564 9.98381 14.8035 9.98381C15.2655 9.98381 15.814 10.1298 16.4495 10.4208L17.0125 9.00231C16.4445 8.74981 15.8855 8.59781 15.335 8.54131V7.50781H13.8505V8.63381C13.5135 8.72131 13.2215 8.85381 12.9805 9.03981C12.5245 9.38981 12.2965 9.87831 12.2965 10.5048C12.2965 10.8398 12.3495 11.1298 12.456 11.3743C12.5635 11.6193 12.7275 11.8363 12.949 12.0253C13.1705 12.2148 13.504 12.4098 13.9475 12.6113C14.437 12.8313 14.738 12.9768 14.8515 13.0483C14.9645 13.1203 15.047 13.1903 15.098 13.2598C15.149 13.3298 15.175 13.4113 15.175 13.5043C15.175 13.6528 15.1115 13.7743 14.9845 13.8688C14.857 13.9633 14.6575 14.0108 14.3845 14.0108C14.068 14.0108 13.721 13.9598 13.343 13.8593C12.9645 13.7588 12.6005 13.6183 12.2495 13.4383V15.0753C12.582 15.2333 12.901 15.3443 13.208 15.4078C13.393 15.4458 13.613 15.4688 13.8505 15.4838V16.4913H15.335V15.3798C15.4855 15.3393 15.6315 15.2928 15.766 15.2318C16.169 15.0508 16.4775 14.7958 16.6915 14.4693C16.906 14.1423 17.013 13.7678 17.013 13.3463C17.013 12.8873 16.8985 12.5063 16.67 12.2043C16.442 11.9018 16.0355 11.6188 15.45 11.3553Z" fill="#1A94AE"/>
</svg>
