<svg width="24" height="24" viewBox="0 0 24 24" fill="none" xmlns="http://www.w3.org/2000/svg">
<path d="M21.375 10.875H19.125V13.125H21.375V10.875Z" fill="#1A94AE"/>
<path d="M16.5 11.625C15.375 11.625 15.375 12 15.375 12.75C15.3532 12.9028 15.3673 13.0586 15.4161 13.205C15.4649 13.3515 15.5472 13.4845 15.6563 13.5937C15.7655 13.7028 15.8985 13.7851 16.045 13.8339C16.1914 13.8827 16.3472 13.8968 16.5 13.875C17.25 13.875 17.625 13.125 17.25 12.375C16.875 11.625 16.875 11.625 16.5 11.625Z" fill="#1A94AE"/>
<path d="M7.125 6.375C6 6.375 5.625 6.375 5.625 7.5C5.625 8.625 6 8.625 7.125 8.625C8.25 8.625 8.625 8.625 8.625 7.5C8.625 6.375 7.875 6.375 7.125 6.375Z" fill="#1A94AE"/>
<path d="M5.625 19.125C7.28185 19.125 8.625 17.7819 8.625 16.125C8.625 14.4681 7.28185 13.125 5.625 13.125C3.96815 13.125 2.625 14.4681 2.625 16.125C2.625 17.7819 3.96815 19.125 5.625 19.125Z" fill="#1A94AE"/>
<path d="M20.625 6.75H19.5V5.625C19.5 5.32663 19.3815 5.04048 19.1705 4.8295C18.9595 4.61853 18.6734 4.5 18.375 4.5H4.875C4.57663 4.5 4.29048 4.61853 4.0795 4.8295C3.86853 5.04048 3.75 5.32663 3.75 5.625V12C3.75 12.0995 3.78951 12.1948 3.85984 12.2652C3.93016 12.3355 4.02554 12.375 4.125 12.375C4.22446 12.375 4.31984 12.3355 4.39016 12.2652C4.46049 12.1948 4.5 12.0995 4.5 12V5.625C4.5 5.52554 4.53951 5.43016 4.60984 5.35984C4.68016 5.28951 4.77554 5.25 4.875 5.25H18.375C18.4745 5.25 18.5698 5.28951 18.6402 5.35984C18.7105 5.43016 18.75 5.52554 18.75 5.625V14.625C18.75 14.7245 18.7105 14.8198 18.6402 14.8902C18.5698 14.9605 18.4745 15 18.375 15H10.125C10.0255 15 9.93016 15.0395 9.85983 15.1098C9.78951 15.1802 9.75 15.2755 9.75 15.375C9.75 15.4745 9.78951 15.5698 9.85983 15.6402C9.93016 15.7105 10.0255 15.75 10.125 15.75H18.375C18.6734 15.75 18.9595 15.6315 19.1705 15.4205C19.3815 15.2095 19.5 14.9234 19.5 14.625V13.5H21V16.875C21 16.9745 20.9605 17.0698 20.8902 17.1402C20.8198 17.2105 20.7245 17.25 20.625 17.25H9.75C9.65054 17.25 9.55516 17.2895 9.48483 17.3598C9.41451 17.4302 9.375 17.5255 9.375 17.625C9.375 17.7245 9.41451 17.8198 9.48483 17.8902C9.55516 17.9605 9.65054 18 9.75 18H20.625C20.9234 18 21.2095 17.8815 21.4205 17.6705C21.6315 17.4595 21.75 17.1734 21.75 16.875V7.875C21.75 7.57663 21.6315 7.29048 21.4205 7.0795C21.2095 6.86853 20.9234 6.75 20.625 6.75ZM20.625 7.5C20.7245 7.5 20.8198 7.53951 20.8902 7.60983C20.9605 7.68016 21 7.77554 21 7.875V10.5H19.5V7.5H20.625ZM19.5 12.75V11.25H21V12.75H19.5Z" fill="#1A94AE"/>
<path d="M14.625 9.75H11.625C11.5255 9.75 11.4302 9.78951 11.3598 9.85983C11.2895 9.93016 11.25 10.0255 11.25 10.125C11.25 10.2245 11.2895 10.3198 11.3598 10.3902C11.4302 10.4605 11.5255 10.5 11.625 10.5H14.625C14.7245 10.5 14.8198 10.4605 14.8902 10.3902C14.9605 10.3198 15 10.2245 15 10.125C15 10.0255 14.9605 9.93016 14.8902 9.85983C14.8198 9.78951 14.7245 9.75 14.625 9.75Z" fill="#1A94AE"/>
<path d="M17.625 10.5C17.7245 10.5 17.8198 10.4605 17.8902 10.3902C17.9605 10.3198 18 10.2245 18 10.125C18 10.0255 17.9605 9.93016 17.8902 9.85983C17.8198 9.78951 17.7245 9.75 17.625 9.75H16.125C16.0255 9.75 15.9302 9.78951 15.8598 9.85983C15.7895 9.93016 15.75 10.0255 15.75 10.125C15.75 10.2245 15.7895 10.3198 15.8598 10.3902C15.9302 10.4605 16.0255 10.5 16.125 10.5H17.625Z" fill="#1A94AE"/>
<path d="M8.25 10.125C8.25 10.2245 8.28951 10.3198 8.35983 10.3902C8.43016 10.4605 8.52554 10.5 8.625 10.5H10.125C10.2245 10.5 10.3198 10.4605 10.3902 10.3902C10.4605 10.3198 10.5 10.2245 10.5 10.125C10.5 10.0255 10.4605 9.93016 10.3902 9.85983C10.3198 9.78951 10.2245 9.75 10.125 9.75H8.625C8.52554 9.75 8.43016 9.78951 8.35983 9.85983C8.28951 9.93016 8.25 10.0255 8.25 10.125Z" fill="#1A94AE"/>
<path d="M5.625 10.5H7.125C7.22446 10.5 7.31984 10.4605 7.39017 10.3902C7.46049 10.3198 7.5 10.2245 7.5 10.125C7.5 10.0255 7.46049 9.93016 7.39017 9.85983C7.31984 9.78951 7.22446 9.75 7.125 9.75H5.625C5.52554 9.75 5.43016 9.78951 5.35984 9.85983C5.28951 9.93016 5.25 10.0255 5.25 10.125C5.25 10.2245 5.28951 10.3198 5.35984 10.3902C5.43016 10.4605 5.52554 10.5 5.625 10.5Z" fill="#1A94AE"/>
<path d="M7.875 6H6.375C6.07663 6 5.79048 6.11853 5.5795 6.3295C5.36853 6.54048 5.25 6.82663 5.25 7.125V7.875C5.25 8.17337 5.36853 8.45952 5.5795 8.6705C5.79048 8.88147 6.07663 9 6.375 9H7.875C8.17337 9 8.45952 8.88147 8.6705 8.6705C8.88147 8.45952 9 8.17337 9 7.875V7.125C9 6.82663 8.88147 6.54048 8.6705 6.3295C8.45952 6.11853 8.17337 6 7.875 6ZM8.25 7.875C8.25 7.97446 8.21049 8.06984 8.14017 8.14017C8.06984 8.21049 7.97446 8.25 7.875 8.25H6.375C6.27554 8.25 6.18016 8.21049 6.10983 8.14017C6.03951 8.06984 6 7.97446 6 7.875V7.125C6 7.02554 6.03951 6.93016 6.10983 6.85983C6.18016 6.78951 6.27554 6.75 6.375 6.75H7.875C7.97446 6.75 8.06984 6.78951 8.14017 6.85983C8.21049 6.93016 8.25 7.02554 8.25 7.125V7.875Z" fill="#1A94AE"/>
<path d="M5.625 12.75C4.95749 12.75 4.30497 12.9479 3.74995 13.3188C3.19494 13.6896 2.76235 14.2167 2.50691 14.8334C2.25146 15.4501 2.18463 16.1287 2.31485 16.7834C2.44508 17.4381 2.76651 18.0395 3.23852 18.5115C3.71052 18.9835 4.31189 19.3049 4.96657 19.4352C5.62126 19.5654 6.29986 19.4985 6.91656 19.2431C7.53326 18.9876 8.06036 18.5551 8.43121 18.0001C8.80206 17.445 9 16.7925 9 16.125C8.99901 15.2302 8.64311 14.3723 8.01039 13.7396C7.37767 13.1069 6.5198 12.751 5.625 12.75ZM5.625 18.75C5.10583 18.75 4.59831 18.596 4.16663 18.3076C3.73495 18.0192 3.3985 17.6092 3.19982 17.1295C3.00114 16.6499 2.94915 16.1221 3.05044 15.6129C3.15173 15.1037 3.40173 14.636 3.76885 14.2688C4.13596 13.9017 4.60369 13.6517 5.11289 13.5504C5.62209 13.4492 6.14989 13.5011 6.62955 13.6998C7.1092 13.8985 7.51917 14.2349 7.80761 14.6666C8.09605 15.0983 8.25 15.6058 8.25 16.125C8.24921 16.821 7.97239 17.4882 7.48028 17.9803C6.98817 18.4724 6.32095 18.7492 5.625 18.75Z" fill="#1A94AE"/>
<path d="M14.625 11.25C14.3848 11.2494 14.1479 11.3065 13.9343 11.4165C13.7207 11.5265 13.5366 11.6862 13.3976 11.8822C13.2586 12.0782 13.1687 12.3047 13.1355 12.5426C13.1023 12.7806 13.1267 13.023 13.2067 13.2496C13.2868 13.4761 13.42 13.6801 13.5953 13.8444C13.7706 14.0087 13.9828 14.1285 14.2141 14.1937C14.4453 14.2589 14.6889 14.2676 14.9242 14.2191C15.1595 14.1705 15.3797 14.0661 15.5663 13.9148C15.8299 14.1302 16.1595 14.2486 16.5 14.25C16.8978 14.25 17.2794 14.092 17.5607 13.8107C17.842 13.5294 18 13.1478 18 12.75C18 12.3522 17.842 11.9706 17.5607 11.6893C17.2794 11.408 16.8978 11.25 16.5 11.25C16.1595 11.2514 15.8299 11.3698 15.5663 11.5853C15.3002 11.3689 14.9679 11.2505 14.625 11.25ZM13.875 12.75C13.875 12.5511 13.954 12.3603 14.0947 12.2197C14.2353 12.079 14.4261 12 14.625 12C14.8043 11.9995 14.9775 12.0643 15.1125 12.1823C15.0377 12.3623 14.9992 12.5553 14.9992 12.7502C14.9992 12.9451 15.0377 13.1381 15.1125 13.3181C14.9775 13.4359 14.8042 13.5006 14.625 13.5C14.4261 13.5 14.2353 13.421 14.0947 13.2803C13.954 13.1397 13.875 12.9489 13.875 12.75ZM16.5 12C16.6484 12 16.7934 12.044 16.9167 12.1264C17.04 12.2088 17.1362 12.3259 17.1929 12.463C17.2497 12.6 17.2645 12.7508 17.2356 12.8963C17.2067 13.0418 17.1352 13.1754 17.0303 13.2803C16.9255 13.3852 16.7918 13.4567 16.6463 13.4856C16.5008 13.5145 16.35 13.4997 16.213 13.4429C16.076 13.3861 15.9588 13.29 15.8764 13.1667C15.794 13.0433 15.75 12.8983 15.75 12.75C15.75 12.5511 15.829 12.3603 15.9697 12.2197C16.1103 12.079 16.3011 12 16.5 12Z" fill="#1A94AE"/>
<path d="M6.62553 14.7914L5.37941 16.6607L4.57766 15.8594C4.50693 15.7911 4.4122 15.7533 4.31388 15.7541C4.21556 15.755 4.1215 15.7944 4.05197 15.8639C3.98245 15.9335 3.94301 16.0275 3.94215 16.1258C3.9413 16.2242 3.9791 16.3189 4.04741 16.3896L5.17241 17.5146C5.24272 17.5849 5.33808 17.6245 5.43753 17.6245C5.45002 17.6251 5.46254 17.6251 5.47503 17.6245C5.5302 17.619 5.58346 17.6014 5.63099 17.5728C5.67852 17.5443 5.71913 17.5056 5.74991 17.4595L7.24991 15.2095C7.27824 15.1685 7.29814 15.1224 7.30844 15.0736C7.31874 15.0249 7.31923 14.9746 7.30988 14.9257C7.30053 14.8768 7.28154 14.8302 7.25401 14.7887C7.22647 14.7473 7.19095 14.7117 7.14951 14.684C7.10807 14.6564 7.06155 14.6373 7.01266 14.6279C6.96376 14.6185 6.91348 14.6188 6.86474 14.629C6.81599 14.6392 6.76977 14.659 6.72877 14.6873C6.68776 14.7156 6.65279 14.7517 6.62591 14.7936L6.62553 14.7914Z" fill="#1A94AE"/>
</svg>
