<svg width="24" height="24" viewBox="0 0 24 24" fill="none" xmlns="http://www.w3.org/2000/svg">
<path d="M11.5528 4.28494C11.8918 5.1134 12.0805 5.95067 12.3231 6.80567C12.4042 7.0917 12.4094 7.41747 12.6857 7.59521C12.866 7.71122 13.05 7.70227 13.248 7.70508C14.0824 7.71695 14.9964 7.34713 15.8619 7.32833C15.6888 7.15526 15.5157 6.98218 15.3426 6.8091C15.2838 7.30836 13.5892 8.08276 13.3458 8.83565C13.0572 9.72866 14.1477 10.5324 14.0985 11.4565C14.2256 11.2897 14.3526 11.1228 14.4797 10.9559C13.8431 11.0721 12.9276 10.0099 12.6452 9.60404C12.4392 9.30786 12.104 9.27898 11.8298 9.49895C11.0097 10.1567 10.4444 10.8771 9.36055 11.1453C9.57964 11.3122 9.79873 11.4791 10.0178 11.646C10.041 10.4063 10.4756 9.78005 11.2964 8.98327C11.5744 8.71339 11.4434 8.21221 11.0672 8.11544C9.86823 7.80695 9.1526 7.27997 8.32669 6.40454C8.20431 6.7 8.08192 6.99546 7.95954 7.29093C8.90414 7.2232 10.5265 7.59193 11.3511 7.0312C12.125 6.50502 12.1825 5.12568 12.3744 4.3261C12.5303 3.6766 11.5292 3.39945 11.373 4.05004C11.1881 4.82058 11.2015 5.86013 10.3266 6.20374C9.77008 6.42231 8.58405 6.20769 7.95954 6.25246C7.51373 6.28443 7.271 6.7982 7.59239 7.13885C8.03595 7.609 8.47613 8.22121 9.01521 8.58811C9.5887 8.97843 10.133 8.94747 10.7912 9.1168C10.7148 8.82752 10.6384 8.53825 10.5621 8.24897C9.46594 9.31302 9.00839 10.0934 8.97935 11.646C8.97289 11.9913 9.31565 12.2262 9.63662 12.1467C10.9405 11.8239 11.5595 11.0389 12.5641 10.2333C12.2922 10.1982 12.0204 10.1632 11.7486 10.1282C12.3891 11.0488 13.5245 12.182 14.7558 11.9572C14.9864 11.9151 15.1256 11.6708 15.137 11.4565C15.1603 11.0175 14.9832 10.5686 14.8312 10.1648C14.5323 9.37071 14.5217 9.25315 15.0002 8.57678C15.446 7.9465 16.2845 7.62819 16.3811 6.8091C16.4136 6.53388 16.1169 6.28433 15.8619 6.28987C15.466 6.29847 15.0785 6.31334 14.6859 6.36165C14.4171 6.39472 13.3953 6.72879 13.1585 6.66889C13.2315 6.7187 13.3045 6.76851 13.3775 6.81831C13.3167 6.43128 13.236 6.04842 13.1356 5.66974C12.9845 5.10013 12.7772 4.55374 12.5542 4.00887C12.3045 3.39869 11.2994 3.66577 11.5528 4.28494Z" fill="#1A94AE"/>
<path d="M5.46942 1.39308C9.89726 1.35691 14.3251 1.32074 18.7529 1.28457C18.5799 1.11149 18.4068 0.938417 18.2337 0.76534C18.1559 3.66896 18.078 6.57258 18.0002 9.4762C17.9529 11.2405 18.0141 12.8115 16.6661 14.1459C15.6048 15.1964 13.7038 16.0887 12.2639 16.1553C4.35325 16.5212 6.0163 6.18603 5.9919 1.05902C5.98872 0.390974 4.95025 0.389593 4.95344 1.05902C4.96486 3.4589 4.97628 5.85878 4.9877 8.25866C4.9954 9.87738 4.84734 11.5497 5.55106 13.0549C6.8439 15.8203 9.27627 17.2479 12.2639 17.1937C14.5392 17.1525 17.9186 15.4817 18.803 13.2007C19.3662 11.7483 19.0327 9.6977 19.0737 8.16957C19.1399 5.70149 19.206 3.23342 19.2722 0.76534C19.2797 0.486355 19.0282 0.243861 18.7529 0.246109C14.3251 0.282277 9.89726 0.318446 5.46942 0.354614C4.8015 0.36007 4.79992 1.39854 5.46942 1.39308Z" fill="#1A94AE"/>
<path d="M18.8156 3.57903C20.0217 3.57853 21.2279 3.57803 22.4341 3.57752C22.2672 3.45046 22.1003 3.32339 21.9334 3.19633C22.6137 5.51739 21.0931 10.3942 18.6634 11.3195C18.045 11.555 18.3133 12.5594 18.9395 12.3209C20.4795 11.7344 21.328 10.5102 21.9501 9.02343C22.6843 7.26896 23.4916 4.8201 22.9348 2.92026C22.8705 2.70084 22.6649 2.53897 22.4341 2.53906C21.2279 2.53956 20.0217 2.54007 18.8156 2.54057C18.1474 2.54085 18.1462 3.57931 18.8156 3.57903Z" fill="#1A94AE"/>
<path d="M5.31556 2.84424C4.43498 2.84697 3.55441 2.84971 2.67383 2.85244C2.34969 2.85345 1.65875 2.7181 1.34357 2.96561C0.590036 3.55735 0.966881 5.53886 1.02924 6.32615C1.21508 8.6724 2.91102 11.0968 5.13368 12.0193C5.75028 12.2752 6.01918 11.2709 5.40975 11.018C4.57485 10.6714 4.00332 9.89881 3.42071 9.24771C2.53076 8.25315 2.13643 7.37731 2.04546 6.03362C2.00199 5.39154 1.77792 4.30082 2.3803 3.89181C2.83304 3.58442 4.71798 3.88456 5.31556 3.8827C5.98366 3.88063 5.98495 2.84216 5.31556 2.84424Z" fill="#1A94AE"/>
<path d="M8.35404 21.53C9.82253 21.5421 11.291 21.5543 12.7595 21.5665C13.4462 21.5722 14.6707 21.4063 15.3358 21.5977C15.8083 21.9234 16.2808 22.2492 16.7533 22.5749C16.3248 22.5813 15.8964 22.5868 15.468 22.5915C14.0398 22.6081 12.6116 22.6181 11.1833 22.6215C10.4692 22.6231 9.75508 22.6233 9.04095 22.6217C8.7553 22.6208 8.46966 22.6198 8.18401 22.6189C6.84425 22.8011 6.97534 22.4356 8.57727 21.5224C9.24275 21.5818 9.23874 20.5429 8.57727 20.484C7.18883 20.3601 5.54993 21.8123 5.96946 23.2658C6.03322 23.4867 6.23981 23.6454 6.47014 23.647C8.6125 23.662 10.7548 23.6657 12.8972 23.6527C14.4631 23.6432 16.4812 23.9615 17.9834 23.5112C18.1488 23.4615 18.3098 23.3253 18.346 23.1485C18.5656 22.0766 18.0682 21.2125 17.069 20.8315C16.0144 20.4293 14.7379 20.547 13.6406 20.5354C11.8785 20.5167 10.1162 20.5061 8.35404 20.4915C7.68564 20.4859 7.68502 21.5244 8.35404 21.53Z" fill="#1A94AE"/>
<path d="M10.3409 16.7124C10.3589 18.0207 10.392 19.3284 10.4402 20.6359C10.4647 21.3022 11.5033 21.3054 11.4786 20.6359C11.4305 19.3284 11.3974 18.0207 11.3794 16.7124C11.3702 16.0447 10.3317 16.0428 10.3409 16.7124Z" fill="#1A94AE"/>
<path d="M12.7557 16.8667C12.7742 18.0976 12.7927 19.3284 12.8112 20.5593C12.8212 21.2269 13.8597 21.2289 13.8497 20.5593C13.8312 19.3284 13.8127 18.0976 13.7942 16.8667C13.7842 16.1991 12.7457 16.1971 12.7557 16.8667Z" fill="#1A94AE"/>
</svg>
