<svg width="24" height="24" viewBox="0 0 24 24" fill="none" xmlns="http://www.w3.org/2000/svg">
<path d="M2.40002 3.36047V23.5205H18.72V20.6405H21.6V0.480469H5.28002V3.36047H2.40002ZM17.76 22.5605H3.36002V4.32047H5.28002H14.4V7.68047H17.76V20.6405V22.5605ZM15.36 4.99919L17.0813 6.72047H15.36V4.99919ZM6.24002 1.44047H20.64V19.6805H18.72V7.00175L15.0787 3.36047H6.24002V1.44047Z" fill="white"/>
<path d="M15.84 9.59961H5.28003V10.5596H15.84V9.59961Z" fill="white"/>
<path d="M15.84 12.4805H5.28003V13.4405H15.84V12.4805Z" fill="white"/>
<path d="M15.84 15.3613H5.28003V16.3213H15.84V15.3613Z" fill="white"/>
<path d="M9.60003 19.2012H5.28003V20.1612H9.60003V19.2012Z" fill="white"/>
<path d="M15.84 19.2012H11.52V20.1612H15.84V19.2012Z" fill="white"/>
<path d="M12.48 6.7207H8.64001V7.6807H12.48V6.7207Z" fill="white"/>
</svg>
