<svg width="24" height="24" viewBox="0 0 24 24" fill="none" xmlns="http://www.w3.org/2000/svg">
<g clip-path="url(#clip0_1_4533)">
<path d="M23.6 10.3004L13.2 2.40039C12.5 1.90039 11.5 1.90039 10.7 2.40039L0.400004 10.3004C-0.399996 10.9004 4.41074e-06 12.0004 1 12.0004H2V18.1004C2 20.2004 3.8 22.0004 6 22.0004H8C8.60001 22.0004 9 21.6004 9 21.0004V16.1004C9 15.0004 9.9 14.0004 11 14.0004H13C14.1 14.0004 15 15.0004 15 16.1004V21.0004C15 21.5004 15.4 22.0004 16 22.0004H18C20.2 22.0004 22 20.2004 22 18.1004V12.0004H23C23.9 12.0004 24.3 10.9004 23.6 10.3004Z" fill="white"/>
</g>
<defs>
<clipPath id="clip0_1_4533">
<rect width="24" height="24" fill="white"/>
</clipPath>
</defs>
</svg>
