<svg width="24" height="24" viewBox="0 0 24 24" fill="none" xmlns="http://www.w3.org/2000/svg">
<path d="M0.893508 2.29297H23.1065C23.4294 2.29297 23.6913 2.55461 23.6913 2.87776C23.6913 7.2851 23.6913 11.6924 23.6913 16.0998C23.6913 16.4227 23.4294 16.6846 23.1065 16.6846H17.4769V18.49H20.2308C21.1172 18.49 21.8403 19.2128 21.8403 20.0995C21.8403 20.9859 21.1172 21.7087 20.2308 21.7087H3.76928C2.88288 21.7087 2.15975 20.9859 2.15975 20.0995C2.15975 19.2128 2.88288 18.49 3.76928 18.49H6.52316V16.6846H0.893508C0.570639 16.6846 0.308716 16.4227 0.308716 16.0998V2.87776C0.308716 2.55461 0.570639 2.29297 0.893508 2.29297V2.29297ZM22.5217 13.726H20.6931C19.924 13.726 19.924 12.5565 20.6931 12.5565H22.5217V11.2911H20.6931C19.924 11.2911 19.924 10.1215 20.6931 10.1215H22.5217V8.85608H20.6931C19.924 8.85608 19.924 7.68649 20.6931 7.68649H22.5217V6.42081H20.6931C19.924 6.42081 19.924 5.25123 20.6931 5.25123H22.5217V3.46255H1.4783V15.515C8.49269 15.515 15.5074 15.515 22.5217 15.515V13.726V13.726ZM15.4467 5.7473C15.6885 5.74871 15.9136 5.90093 15.9966 6.14216L16.5088 7.6298C16.7583 8.35717 15.6525 8.73617 15.4033 8.00908L15.2324 7.51273L12.2268 11.1952C11.9765 11.4986 11.4991 11.4793 11.2834 11.1405L10.0228 9.16619L7.53882 13.0576C7.12751 13.7028 6.1453 13.0769 6.55661 12.4317L9.53131 7.77096C9.7646 7.40501 10.297 7.4172 10.5189 7.77919L11.8319 9.83517L14.2737 6.84346L13.8227 6.8154C13.0565 6.77033 13.1248 5.60528 13.8913 5.65035L15.4467 5.7473V5.7473ZM3.76928 19.6596C3.52862 19.6596 3.32934 19.8586 3.32934 20.0995C3.32934 20.3402 3.52862 20.5392 3.76928 20.5392H20.2308C20.4714 20.5392 20.6707 20.3402 20.6707 20.0995C20.6707 19.8586 20.4714 19.6596 20.2308 19.6596C14.7437 19.6596 9.25635 19.6596 3.76928 19.6596V19.6596ZM16.3073 16.6846H7.69274V18.49H16.3073V16.6846Z" fill="white"/>
</svg>
