<svg width="12" height="12" viewBox="0 0 12 12" fill="none" xmlns="http://www.w3.org/2000/svg">
<g opacity="0.5">
<path d="M1.76932 8.82662C1.92243 8.9532 2.11936 9.01414 2.3172 8.99616C2.51505 8.97819 2.69777 8.88277 2.82557 8.73067L6.00003 4.92186L9.17453 8.73061C9.30196 8.8833 9.48483 8.97911 9.68291 8.99697C9.88099 9.01483 10.078 8.95327 10.2307 8.82583C10.3834 8.6984 10.4792 8.51553 10.4971 8.31745C10.5149 8.11937 10.4534 7.92231 10.326 7.76962L6.57574 3.26942C6.50539 3.18506 6.41736 3.11719 6.31787 3.07061C6.21839 3.02403 6.10988 2.99989 6.00003 2.99989C5.89018 2.99989 5.78167 3.02403 5.68219 3.07061C5.5827 3.11719 5.49467 3.18506 5.42432 3.26942L1.67411 7.76969C1.54672 7.92253 1.48519 8.11969 1.50304 8.31785C1.5209 8.51602 1.61666 8.69901 1.76932 8.82662Z" fill="white"/>
</g>
</svg>
