<svg width="12" height="12" viewBox="0 0 12 12" fill="none" xmlns="http://www.w3.org/2000/svg">
<path d="M3.1735 1.76919C3.04692 1.92231 2.98599 2.11924 3.00396 2.31708C3.02193 2.51492 3.11736 2.69764 3.26945 2.82544L7.07826 5.99991L3.26951 9.17441C3.11682 9.30184 3.02101 9.48471 3.00315 9.68279C2.9853 9.88087 3.04686 10.0779 3.17429 10.2306C3.30173 10.3833 3.4846 10.4791 3.68267 10.497C3.88075 10.5148 4.07781 10.4533 4.2305 10.3258L8.7307 6.57562C8.81506 6.50527 8.88294 6.41723 8.92951 6.31775C8.97609 6.21826 9.00023 6.10976 9.00023 5.99991C9.00023 5.89006 8.97609 5.78155 8.92951 5.68206C8.88294 5.58258 8.81506 5.49454 8.7307 5.42419L4.23044 1.67398C4.07759 1.54659 3.88044 1.48507 3.68227 1.50292C3.4841 1.52077 3.30111 1.61654 3.1735 1.76919Z" fill="#1A94AE"/>
</svg>
