<svg width="12" height="12" viewBox="0 0 12 12" fill="none" xmlns="http://www.w3.org/2000/svg">
<g opacity="0.5">
<path d="M10.2307 3.17338C10.0776 3.0468 9.88064 2.98586 9.6828 3.00384C9.48495 3.02181 9.30223 3.11723 9.17443 3.26933L5.99997 7.07814L2.82547 3.26939C2.69804 3.1167 2.51517 3.02089 2.31709 3.00303C2.11901 2.98517 1.92195 3.04673 1.76927 3.17417C1.61658 3.3016 1.52077 3.48447 1.50291 3.68255C1.48505 3.88063 1.54661 4.07769 1.67405 4.23038L5.42426 8.73058C5.49461 8.81494 5.58264 8.88281 5.68213 8.92939C5.78161 8.97597 5.89012 9.00011 5.99997 9.00011C6.10982 9.00011 6.21833 8.97597 6.31781 8.92939C6.4173 8.88281 6.50533 8.81494 6.57568 8.73058L10.3259 4.23031C10.4533 4.07747 10.5148 3.88031 10.497 3.68215C10.4791 3.48398 10.3833 3.30099 10.2307 3.17338Z" fill="white"/>
</g>
</svg>
