<svg width="24" height="24" viewBox="0 0 24 24" fill="none" xmlns="http://www.w3.org/2000/svg">
<path d="M21.75 20.625H2.25C1.2 20.625 0.375 19.8 0.375 18.75V5.25C0.375 4.2 1.2 3.375 2.25 3.375H21.75C22.8 3.375 23.625 4.2 23.625 5.25V18.75C23.625 19.8 22.8 20.625 21.75 20.625Z" fill="#1976D2"/>
<path d="M23.625 5.25H0.375V9H23.625V5.25Z" fill="#263238"/>
<path d="M20.625 9.375H3.375V12.375H20.625V9.375Z" fill="#E0F7FA"/>
<path d="M3.5625 10.725L4.725 9.5625" stroke="#1565C0" stroke-miterlimit="10"/>
<path d="M4.38745 12.1875L7.01245 9.5625" stroke="#1565C0" stroke-miterlimit="10"/>
<path d="M9.30005 9.5625L6.67505 12.1875" stroke="#1565C0" stroke-miterlimit="10"/>
<path d="M11.5875 9.5625L8.96252 12.1875" stroke="#1565C0" stroke-miterlimit="10"/>
<path d="M13.875 9.5625L11.25 12.1875" stroke="#1565C0" stroke-miterlimit="10"/>
<path d="M16.1625 9.5625L13.5375 12.1875" stroke="#1565C0" stroke-miterlimit="10"/>
<path d="M18.4875 9.5625L15.8625 12.1875" stroke="#1565C0" stroke-miterlimit="10"/>
<path d="M20.4375 9.90039L18.15 12.1879" stroke="#1565C0" stroke-miterlimit="10"/>
<path d="M4.72498 10.6875L5.84998 9.5625" stroke="#FBC02D" stroke-miterlimit="10"/>
<path d="M8.13745 9.5625L7.01245 10.6875" stroke="#FBC02D" stroke-miterlimit="10"/>
<path d="M10.4625 9.5625L9.33752 10.6875" stroke="#FBC02D" stroke-miterlimit="10"/>
<path d="M12.75 9.5625L11.625 10.6875" stroke="#FBC02D" stroke-miterlimit="10"/>
<path d="M15.0375 9.5625L13.9125 10.6875" stroke="#FBC02D" stroke-miterlimit="10"/>
<path d="M17.325 9.5625L16.2 10.6875" stroke="#FBC02D" stroke-miterlimit="10"/>
<path d="M19.6125 9.5625L18.4875 10.6875" stroke="#FBC02D" stroke-miterlimit="10"/>
<path d="M20.4375 11.0254L19.275 12.1879" stroke="#C62828" stroke-miterlimit="10"/>
<path d="M4.35 11.0625L3.5625 11.85" stroke="#C62828" stroke-miterlimit="10"/>
<path d="M6.63745 11.0625L5.51245 12.1875" stroke="#C62828" stroke-miterlimit="10"/>
<path d="M7.83752 12.1875L8.96252 11.0625" stroke="#C62828" stroke-miterlimit="10"/>
<path d="M10.125 12.1875L11.25 11.0625" stroke="#C62828" stroke-miterlimit="10"/>
<path d="M12.4125 12.1875L13.5375 11.0625" stroke="#C62828" stroke-miterlimit="10"/>
<path d="M14.7 12.1875L15.825 11.0625" stroke="#C62828" stroke-miterlimit="10"/>
<path d="M16.9875 12.1875L18.1125 11.0625" stroke="#C62828" stroke-miterlimit="10"/>
<path d="M19.5 17.8125H18C16.875 17.8125 15.9375 16.875 15.9375 15.75C15.9375 14.625 16.875 13.6875 18 13.6875H19.5C20.625 13.6875 21.5625 14.625 21.5625 15.75C21.5625 16.875 20.625 17.8125 19.5 17.8125Z" stroke="#E0E0E0" stroke-miterlimit="10"/>
<path d="M18 14.4375C18.2625 14.4375 18.525 14.5125 18.75 14.6625C18.4125 14.8875 18.1875 15.3 18.1875 15.75H19.3125C19.3125 16.2 19.0875 16.575 18.75 16.8375C18.525 16.9875 18.2625 17.0625 18 17.0625C17.2875 17.0625 16.6875 16.4625 16.6875 15.75C16.6875 15.0375 17.2875 14.4375 18 14.4375Z" fill="#D32F2F"/>
<path d="M18.1875 15.75C18.1875 15.3 18.4125 14.925 18.75 14.6625C18.975 14.5125 19.2375 14.4375 19.5 14.4375C20.2125 14.4375 20.8125 15.0375 20.8125 15.75C20.8125 16.4625 20.2125 17.0625 19.5 17.0625C19.2375 17.0625 18.975 16.9875 18.75 16.8375C19.0875 16.6125 19.3125 16.2 19.3125 15.75H18.1875Z" fill="#F57C00"/>
<path d="M6.75 13.6875H4.125" stroke="#E0E0E0" stroke-miterlimit="10"/>
<path d="M3.75 13.6875H2.25" stroke="#E0E0E0" stroke-miterlimit="10"/>
<path d="M10.5 13.6875H7.125" stroke="#E0E0E0" stroke-miterlimit="10"/>
<path d="M8.25 14.4375H10.5" stroke="#E0E0E0" stroke-miterlimit="10"/>
<path d="M2.25 14.4375H7.875" stroke="#E0E0E0" stroke-miterlimit="10"/>
<path d="M8.25 15.9375H10.5" stroke="#E0E0E0" stroke-miterlimit="10"/>
<path d="M3.75 15.9375H2.25" stroke="#E0E0E0" stroke-miterlimit="10"/>
<path d="M7.875 15.9375H4.125" stroke="#E0E0E0" stroke-miterlimit="10"/>
<path d="M10.5 16.6875H7.5" stroke="#E0E0E0" stroke-miterlimit="10"/>
<path d="M7.125 16.6875H2.25" stroke="#E0E0E0" stroke-miterlimit="10"/>
<path d="M10.5 17.4375H6.75" stroke="#E0E0E0" stroke-miterlimit="10"/>
<path d="M2.25 17.4375H6.375" stroke="#E0E0E0" stroke-miterlimit="10"/>
</svg>
