<svg width="24" height="24" viewBox="0 0 24 24" fill="none" xmlns="http://www.w3.org/2000/svg">
<path d="M22.41 10.5899L20.36 8.53993V5.62993C20.36 5.09949 20.1493 4.59078 19.7742 4.21571C19.3991 3.84064 18.8904 3.62993 18.36 3.62993H15.46L13.41 1.62993C13.0353 1.25742 12.5284 1.04834 12 1.04834C11.4716 1.04834 10.9647 1.25742 10.59 1.62993L8.54 3.63993H5.63C5.09957 3.63993 4.59086 3.85064 4.21579 4.22571C3.84071 4.60078 3.63 5.10949 3.63 5.63993V8.53993L1.63 10.5899C1.43677 10.7715 1.28157 10.9896 1.17342 11.2317C1.06526 11.4737 1.00631 11.7349 1 11.9999C0.999579 12.5281 1.20808 13.0349 1.58 13.4099L3.64 15.4599V18.3699C3.64 18.9004 3.85071 19.4091 4.22579 19.7841C4.60086 20.1592 5.10957 20.3699 5.64 20.3699H8.54L10.59 22.4199C10.965 22.7918 11.4719 23.0003 12 22.9999C12.5281 23.0003 13.035 22.7918 13.41 22.4199L15.46 20.3599H18.37C18.9004 20.3599 19.4091 20.1492 19.7842 19.7741C20.1593 19.3991 20.37 18.8904 20.37 18.3599V15.4599L22.42 13.4099C22.7925 13.0352 23.0016 12.5283 23.0016 11.9999C23.0016 11.4716 22.7925 10.9647 22.42 10.5899H22.41ZM18.36 14.6399V18.3599H14.64L12 20.9999L9.36 18.3599H5.64V14.6399L3 11.9999L5.64 9.35993V5.63993H9.36L12 2.99993L14.64 5.63993H18.36V9.35993L21 11.9999L18.36 14.6399Z" fill="#1A94AE"/>
<path d="M14.24 7.85005L8.23999 14.8501C8.15463 14.9499 8.08976 15.0655 8.0491 15.1904C8.00843 15.3152 7.99275 15.4469 8.00297 15.5778C8.0236 15.8423 8.14842 16.0877 8.34999 16.2601C8.55155 16.4324 8.81334 16.5177 9.07777 16.4971C9.3422 16.4764 9.5876 16.3516 9.75999 16.1501L15.76 9.15005C15.9324 8.94849 16.0176 8.6867 15.997 8.42227C15.9764 8.15784 15.8516 7.91244 15.65 7.74005C15.4484 7.56766 15.1866 7.4824 14.9222 7.50303C14.6578 7.52366 14.4124 7.64849 14.24 7.85005Z" fill="#1A94AE"/>
<path d="M10.9 10.4501C11.1861 10.3675 11.4411 10.2015 11.6326 9.97348C11.824 9.74541 11.9433 9.46553 11.9751 9.16946C12.0069 8.8734 11.95 8.57456 11.8114 8.31099C11.6728 8.04743 11.4589 7.83107 11.197 7.68947C10.935 7.54788 10.6369 7.48745 10.3404 7.51589C10.044 7.54433 9.7628 7.66035 9.53255 7.84916C9.30229 8.03798 9.13345 8.29106 9.04752 8.57616C8.96159 8.86127 8.96246 9.1655 9.05002 9.4501C9.16789 9.82457 9.42696 10.1384 9.77232 10.3251C10.1177 10.5118 10.5222 10.5566 10.9 10.4501Z" fill="#1A94AE"/>
<path d="M13.1 13.55C12.8139 13.6327 12.5589 13.7986 12.3675 14.0267C12.176 14.2547 12.0567 14.5346 12.0249 14.8307C11.9931 15.1267 12.05 15.4256 12.1886 15.6892C12.3272 15.9527 12.5411 16.1691 12.803 16.3107C13.065 16.4523 13.3631 16.5127 13.6596 16.4843C13.956 16.4558 14.2372 16.3398 14.4675 16.151C14.6977 15.9622 14.8666 15.7091 14.9525 15.424C15.0384 15.1389 15.0375 14.8347 14.95 14.55C14.8321 14.1756 14.573 13.8617 14.2277 13.6751C13.8823 13.4884 13.4778 13.4435 13.1 13.55Z" fill="#1A94AE"/>
</svg>
