<svg width="25" height="24" viewBox="0 0 25 24" fill="none" xmlns="http://www.w3.org/2000/svg">
<path d="M24.264 9.92822C24.0471 9.71169 23.6952 9.71169 23.4786 9.92822L22.167 11.238C21.8486 6.93459 18.7944 3.32387 14.5987 2.29078C10.4033 1.25749 6.01807 3.03645 3.7325 6.69856C3.6253 6.86654 3.61655 7.07921 3.70972 7.25553C3.80288 7.43184 3.98351 7.54477 4.18306 7.55107C4.38261 7.55757 4.57037 7.45641 4.67451 7.2864C6.69097 4.05613 10.5473 2.47116 14.2566 3.34824C17.966 4.22533 20.7012 7.36846 21.0531 11.1587L19.8202 9.92822C19.6023 9.71819 19.2559 9.72104 19.0415 9.93513C18.8273 10.149 18.8243 10.4949 19.0348 10.7127L21.2567 12.9312C21.4735 13.1479 21.8252 13.1479 22.0421 12.9312L24.264 10.7127C24.481 10.4962 24.481 10.1448 24.264 9.92822Z" fill="black"/>
<path d="M20.5211 16.5373C20.2608 16.3754 19.9181 16.4542 19.7549 16.7134C17.7375 19.9441 13.8794 21.529 10.168 20.6519C6.45688 19.7749 3.72052 16.6315 3.36865 12.841L4.60171 14.0718C4.81966 14.2818 5.16623 14.279 5.38073 14.0649C5.59503 13.851 5.59808 13.5051 5.38745 13.2873L3.16454 11.0688C2.9476 10.8521 2.59573 10.8521 2.37879 11.0688L0.156085 13.2873C-0.0545453 13.5051 -0.0516962 13.851 0.162801 14.0649C0.377094 14.279 0.723667 14.2818 0.941827 14.0718L2.25384 12.762C2.57253 17.0654 5.62799 20.6761 9.82554 21.7092C14.0231 22.7425 18.4101 20.9637 20.6967 17.3014C20.8591 17.042 20.7805 16.7002 20.5211 16.5373Z" fill="#00C4C3"/>
</svg>
