<svg width="18" height="18" viewBox="0 0 18 18" fill="none" xmlns="http://www.w3.org/2000/svg">
<path d="M1.8 2.52011V17.6401H14.04V15.4801H16.2V0.360107H3.96V2.52011H1.8ZM13.32 16.9201H2.52V3.24011H3.96H10.8V5.76011H13.32V15.4801V16.9201ZM11.52 3.74915L12.811 5.04011H11.52V3.74915ZM4.68 1.08011H15.48V14.7601H14.04V5.25107L11.309 2.52011H4.68V1.08011Z" fill="#1A94AE"/>
<path d="M11.88 7.2002H3.96001V7.9202H11.88V7.2002Z" fill="#1A94AE"/>
<path d="M11.88 9.36011H3.96001V10.0801H11.88V9.36011Z" fill="#1A94AE"/>
<path d="M11.88 11.52H3.96001V12.24H11.88V11.52Z" fill="#1A94AE"/>
<path d="M7.20001 14.4001H3.96001V15.1201H7.20001V14.4001Z" fill="#1A94AE"/>
<path d="M11.88 14.4001H8.64V15.1201H11.88V14.4001Z" fill="#1A94AE"/>
<path d="M9.36001 5.04004H6.48001V5.76004H9.36001V5.04004Z" fill="#1A94AE"/>
</svg>
