<svg width="12" height="10" viewBox="0 0 12 10" fill="none" xmlns="http://www.w3.org/2000/svg">
<path d="M11.25 4.625H10.5V0.875H8.625V1.625H9.75V4.25937C9.19687 3.43437 7.95 2 6 2C4.05 2 2.80312 3.43437 2.25 4.25937V1.625H3.375V0.875H1.5V4.625H0.75V5.375H1.5V9.125H3.375V8.375H2.25V5.74063C2.80312 6.56563 4.05 8 6 8C7.95 8 9.19687 6.56563 9.75 5.74063V8.375H8.625V9.125H10.5V5.375H11.25V4.625ZM6 2.75C7.54688 2.75 8.5875 3.9125 9.08438 4.625H7.8375C7.65937 3.77187 6.90938 3.125 6 3.125C5.09062 3.125 4.34063 3.77187 4.1625 4.625H2.91563C3.40313 3.9125 4.44375 2.75 6 2.75ZM4.94063 4.625C5.1 4.18438 5.5125 3.875 6 3.875C6.4875 3.875 6.9 4.18438 7.05938 4.625H4.94063ZM7.05938 5.375C6.9 5.81563 6.4875 6.125 6 6.125C5.5125 6.125 5.1 5.81563 4.94063 5.375H7.05938ZM6 7.25C4.45312 7.25 3.4125 6.0875 2.91563 5.375H4.1625C4.34063 6.22813 5.09062 6.875 6 6.875C6.90938 6.875 7.65937 6.22813 7.8375 5.375H9.08438C8.59688 6.0875 7.55625 7.25 6 7.25Z" fill="white"/>
<path d="M7.875 0.875H7.125V1.625H7.875V0.875Z" fill="white"/>
<path d="M4.875 8.375H4.125V9.125H4.875V8.375Z" fill="white"/>
</svg>
