<svg width="20" height="24" viewBox="0 0 20 24" fill="none" xmlns="http://www.w3.org/2000/svg">
<path d="M13.4683 8.88349C13.3378 8.77049 13.1678 8.71394 12.9956 8.72627C12.8234 8.73861 12.6632 8.81882 12.5501 8.94926L9.98125 11.9147L9.445 11.2887C9.38948 11.2234 9.32161 11.1697 9.24528 11.1307C9.16896 11.0917 9.08568 11.0681 9.00023 11.0613C8.91477 11.0546 8.82883 11.0648 8.74732 11.0913C8.66581 11.1178 8.59035 11.1602 8.52525 11.216C8.46016 11.2718 8.40671 11.3398 8.36799 11.4163C8.32927 11.4928 8.30602 11.5762 8.29959 11.6616C8.29316 11.7471 8.30368 11.833 8.33053 11.9144C8.35737 11.9958 8.40003 12.0711 8.45605 12.136L9.484 13.3357C9.54495 13.4068 9.6205 13.4639 9.70552 13.5032C9.79053 13.5424 9.88301 13.5629 9.97664 13.5631H9.97848C10.0718 13.5631 10.1641 13.543 10.2489 13.5042C10.3338 13.4654 10.4094 13.4088 10.4704 13.3382L13.5342 9.80149C13.5901 9.73689 13.6328 9.6619 13.6598 9.58081C13.6868 9.49971 13.6975 9.41409 13.6914 9.32885C13.6853 9.2436 13.6624 9.16039 13.6241 9.08398C13.5859 9.00756 13.5329 8.93944 13.4683 8.88349Z" fill="white" fill-opacity="0.5"/>
<path d="M19.1592 6.86564C19.1448 6.43258 18.9804 6.01798 18.694 5.69283C18.4076 5.36768 18.017 5.15221 17.5893 5.08331C15.0331 4.62408 12.604 2.38177 11.3845 1.08723C11.2086 0.899869 10.9966 0.749918 10.7613 0.646343C10.5261 0.542767 10.2723 0.487695 10.0153 0.484418L10.0128 0.484981L10.0102 0.484418C9.7481 0.482645 9.48851 0.535195 9.24777 0.638753C9.00702 0.742311 8.79035 0.894631 8.61141 1.08611C7.39083 2.38177 4.96176 4.62408 2.40562 5.08331C1.97804 5.15463 1.58836 5.37181 1.30279 5.69794C1.01722 6.02406 0.853389 6.439 0.839128 6.87224C0.806231 8.75263 0.961302 10.6316 1.30203 12.4812L1.3024 12.4821C2.36238 18.0721 5.15575 21.8153 9.38212 23.3078C9.58398 23.3784 9.79632 23.4143 10.0102 23.414C10.2188 23.4143 10.4258 23.3777 10.6217 23.306C14.8467 21.7749 17.6427 18.0318 18.7075 12.4815V12.4809C19.0532 10.63 19.2046 8.748 19.1592 6.86564ZM5.29683 11.8801H2.2225C1.94755 10.2311 1.82328 8.56046 1.85125 6.88889C1.85945 6.68961 1.93733 6.49951 2.0713 6.35175C2.20527 6.20398 2.38684 6.10791 2.58438 6.08028C5.42665 5.56927 8.04213 3.16694 9.34915 1.77937C9.39554 1.72971 9.44752 1.68559 9.50406 1.64789V7.30964C8.36861 7.43378 7.31664 7.96527 6.54305 8.80565C5.76947 9.64602 5.32672 10.7383 5.29683 11.8801ZM10.0091 15.4057C9.50244 15.4064 9.00202 15.294 8.54431 15.0768C8.08659 14.8596 7.68309 14.543 7.36323 14.1501C7.04337 13.7572 6.81519 13.2979 6.69533 12.8056C6.57547 12.3134 6.56695 11.8006 6.67038 11.3046C6.77381 10.8086 6.98659 10.342 7.29322 9.93865C7.59984 9.53534 7.99259 9.20551 8.44283 8.97321C8.89308 8.7409 9.38948 8.61198 9.89586 8.59583C10.4022 8.57968 10.9059 8.6767 11.37 8.87984L11.8415 8.33553C11.9906 8.16335 12.175 8.02527 12.3822 7.93067C12.5895 7.83606 12.8146 7.78715 13.0424 7.78724C13.3468 7.78734 13.6448 7.87492 13.9009 8.03955C14.1569 8.20419 14.3603 8.43895 14.4867 8.71589C14.6132 8.99282 14.6574 9.30025 14.614 9.60158C14.5707 9.90291 14.4417 10.1854 14.2424 10.4155L13.363 11.4306C13.4493 11.9193 13.4271 12.4209 13.2981 12.9C13.1691 13.3791 12.9363 13.824 12.6163 14.2032C12.2963 14.5825 11.8969 14.8867 11.4463 15.0945C10.9957 15.3023 10.505 15.4085 10.0088 15.4056L10.0091 15.4057ZM10.5163 22.2639V16.6899C11.5189 16.5797 12.4599 16.1517 13.2019 15.4685C13.9439 14.7852 14.4478 13.8825 14.6401 12.8924H17.5889C16.822 16.3443 14.9668 20.5282 10.5163 22.2639Z" fill="white" fill-opacity="0.5"/>
</svg>
