<svg width="24" height="24" viewBox="0 0 24 24" fill="none" xmlns="http://www.w3.org/2000/svg">
<path fill-rule="evenodd" clip-rule="evenodd" d="M21.3809 20.7618H4.105C3.62704 20.7618 3.23824 20.373 3.23824 19.895V2.61912C3.23824 2.27737 2.96087 2 2.61912 2C2.27737 2 2 2.27737 2 2.61912V19.895C2 21.056 2.94453 22 4.105 22H21.3809C21.7226 22 22 21.7226 22 21.3809C22 21.0391 21.7231 20.7618 21.3809 20.7618ZM9.3447 17.0372C12.1323 15.9235 16.1683 13.1497 19.8009 6.33348L19.9764 8.77005C20.0001 9.09546 20.2716 9.34372 20.5924 9.34372C20.6073 9.34372 20.6226 9.34322 20.6374 9.34223C20.9776 9.318 21.2342 9.02177 21.2095 8.68153L20.9029 4.43002C20.8886 4.23121 20.7788 4.0512 20.6083 3.94686C20.4387 3.843 20.2276 3.82718 20.0446 3.90532L16.1218 5.5719C15.8074 5.70542 15.661 6.06792 15.7945 6.38244C15.928 6.69647 16.2894 6.84483 16.6049 6.70982L18.6671 5.834C15.2225 12.262 11.4702 14.8568 8.88538 15.8894C8.56845 16.0165 8.41419 16.3755 8.54076 16.693C8.63817 16.9348 8.87005 17.0812 9.11578 17.0812C9.19193 17.0812 9.26955 17.0674 9.3447 17.0372ZM5.51047 17.8701C5.16366 17.8701 4.96491 17.8443 4.94951 17.8418C4.60965 17.7951 4.37215 17.4824 4.41885 17.1424C4.46506 16.8044 4.77859 16.5716 5.11546 16.6118C5.12938 16.6137 5.7122 16.6832 6.6647 16.5323C7.00307 16.4777 7.32156 16.7091 7.37522 17.0481C7.42839 17.3866 7.19734 17.7048 6.85848 17.7579C6.29702 17.8467 5.83741 17.8701 5.51047 17.8701Z" fill="black"/>
<path d="M9.34428 17.0372C12.1319 15.9235 16.1679 13.1496 19.8004 6.33347L19.976 8.77005C19.9997 9.09545 20.2711 9.34371 20.592 9.34371C20.6069 9.34371 20.6222 9.34321 20.637 9.34222C20.9772 9.31799 21.2338 9.02176 21.2091 8.68152L20.9025 4.43001C20.8882 4.23121 20.7784 4.0512 20.6078 3.94685C20.4383 3.843 20.2271 3.82717 20.0442 3.90531L16.1214 5.57189C15.8069 5.70541 15.6606 6.06791 15.7941 6.38243C15.9276 6.69646 16.289 6.84482 16.6045 6.70981L18.6667 5.83399C15.222 12.262 11.4698 14.8568 8.88495 15.8894C8.56803 16.0165 8.41376 16.3755 8.54034 16.693C8.63774 16.9348 8.86963 17.0812 9.11536 17.0812C9.1915 17.0812 9.26912 17.0674 9.34428 17.0372Z" fill="#00C4C3"/>
<path d="M4.9496 17.8418C4.96501 17.8442 5.16375 17.8701 5.51057 17.8701C5.83751 17.8701 6.29711 17.8467 6.85857 17.7579C7.19743 17.7048 7.42848 17.3866 7.37531 17.0481C7.32165 16.709 7.00316 16.4777 6.66479 16.5323C5.7123 16.6832 5.12947 16.6137 5.11556 16.6118C4.77868 16.5715 4.46516 16.8043 4.41895 17.1424C4.37224 17.4824 4.60974 17.7951 4.9496 17.8418Z" fill="#00C4C3"/>
</svg>
