<svg width="24" height="24" viewBox="0 0 24 24" fill="none" xmlns="http://www.w3.org/2000/svg">
<path d="M12.9 2.60043L15.2 7.60043C15.3 7.90043 15.6 8.10043 15.9 8.20043L21.1 9.00043C22 9.00043 22.3 10.0004 21.7 10.6004L17.9 14.5004C17.7 14.7004 17.6 15.1004 17.6 15.4004L18.5 20.8004C18.6 21.6004 17.8 22.3004 17.1 21.9004L12.4 19.3004C12.1 19.1004 11.8 19.1004 11.5 19.3004L6.80001 21.9004C6.10001 22.3004 5.20001 21.7004 5.40001 20.8004L6.30001 15.4004C6.40001 15.1004 6.20001 14.7004 6.00001 14.5004L2.20001 10.6004C1.70001 10.0004 2.00001 9.00043 2.80001 8.90043L8.00001 8.10043C8.30001 8.10043 8.60001 7.80043 8.70001 7.50043L11 2.50043C11.5 1.80043 12.5 1.80043 12.9 2.60043Z" fill="white" fill-opacity="0.5"/>
</svg>
