<svg width="18" height="18" viewBox="0 0 18 18" fill="none" xmlns="http://www.w3.org/2000/svg">
<path d="M5.66931 13.875C6.67404 14.6709 7.6258 15 8.99995 15C12.0194 15 14.5111 12.7097 14.8753 9.74997H15.7586C16.3497 9.74997 16.7023 9.08239 16.3744 8.58394L14.7968 6.18603C14.5038 5.74072 13.8581 5.74072 13.5651 6.18603L11.9875 8.58394C11.6596 9.08239 12.0122 9.74997 12.6033 9.74997H13.3794C13.0271 11.8782 11.2004 13.5 8.99995 13.5C8.19077 13.5 7.43213 13.2807 6.77877 12.8975L5.66931 13.875Z" fill="#1A94AE"/>
<path d="M11.2211 5.10244C10.5678 4.7193 9.80918 4.5 9 4.5C6.79955 4.5 4.97291 6.12172 4.62054 8.25H5.3966C5.98775 8.25 6.34034 8.91757 6.01243 9.41602L4.43483 11.8139C4.14187 12.2593 3.49612 12.2593 3.20315 11.8139L1.62555 9.41602C1.29764 8.91757 1.65024 8.25 2.24139 8.25H3.12466C3.48888 5.29027 5.98049 3 9 3C10.3742 3 11.3259 3.32911 12.3307 4.125L11.2211 5.10244Z" fill="#1A94AE"/>
</svg>
