<svg width="18" height="18" viewBox="0 0 18 18" fill="none" xmlns="http://www.w3.org/2000/svg">
<g clip-path="url(#clip0_1_1563)">
<path d="M17.992 5.39973C17.9116 6.93254 16.6902 9.03137 14.3196 11.6962C11.8728 14.4806 9.80357 15.8728 8.10804 15.8728C7.05937 15.8728 6.17143 15.0255 5.4442 13.331C4.02991 8.78879 3.42723 6.12746 2.25804 6.12746C2.12143 6.12746 1.65134 6.37707 0.84375 6.86926L0 5.91301C2.07321 4.32043 4.05402 2.54855 5.29554 2.45012C6.69777 2.33058 7.55759 3.17082 7.88303 4.96379C9.03616 11.3446 9.54643 12.3079 11.6437 9.41808C12.3951 8.37746 12.8009 7.58644 12.8571 7.04152C13.05 5.42785 11.4187 5.53683 10.3138 5.95168C11.1978 3.41691 12.8893 2.18644 15.3844 2.25676C17.2246 2.29894 18.0964 3.35012 17.992 5.39973Z" fill="#FAAD34"/>
</g>
<defs>
<clipPath id="clip0_1_1563">
<rect width="18" height="18" fill="white"/>
</clipPath>
</defs>
</svg>
