<svg width="18" height="18" viewBox="0 0 18 18" fill="none" xmlns="http://www.w3.org/2000/svg">
<path d="M2.25 2.25H15.75C15.9489 2.25 16.1397 2.32902 16.2803 2.46967C16.421 2.61032 16.5 2.80109 16.5 3V15C16.5 15.1989 16.421 15.3897 16.2803 15.5303C16.1397 15.671 15.9489 15.75 15.75 15.75H2.25C2.05109 15.75 1.86032 15.671 1.71967 15.5303C1.57902 15.3897 1.5 15.1989 1.5 15V3C1.5 2.80109 1.57902 2.61032 1.71967 2.46967C1.86032 2.32902 2.05109 2.25 2.25 2.25ZM8.25 6.375V11.625H9.75V6.375H8.25ZM8.03625 6.375H6.45075L5.328 9.45975L4.20525 6.375H2.61975L4.578 11.598H6.078L8.03625 6.375ZM12 10.125H13.125C13.6223 10.125 14.0992 9.92746 14.4508 9.57583C14.8025 9.22419 15 8.74728 15 8.25C15 7.75272 14.8025 7.27581 14.4508 6.92417C14.0992 6.57254 13.6223 6.375 13.125 6.375H10.5V11.625H12V10.125ZM12 8.625V7.875H13.125C13.2245 7.875 13.3198 7.91451 13.3902 7.98483C13.4605 8.05516 13.5 8.15054 13.5 8.25C13.5 8.34946 13.4605 8.44484 13.3902 8.51517C13.3198 8.58549 13.2245 8.625 13.125 8.625H12Z" fill="#FBC02D"/>
</svg>
