<svg width="24" height="24" viewBox="0 0 24 24" fill="none" xmlns="http://www.w3.org/2000/svg">
<path fill-rule="evenodd" clip-rule="evenodd" d="M18.0471 15.8871C18.0471 15.5291 18.3259 15.2386 18.6695 15.2386C19.0135 15.2386 19.2919 15.5291 19.2924 15.8876V19.795C19.2924 21.0111 18.3433 22 17.1762 22H4.11617C2.94954 22 2 21.0111 2 19.795V4.17028C2 4.15096 2.00467 4.13332 2.00937 4.11557C2.0125 4.10377 2.01564 4.09191 2.01743 4.07949C2.01566 4.05887 2.01259 4.0385 2.00951 4.01808C2.00476 3.9866 2 3.95501 2 3.92228C2 2.8623 2.94954 2 4.11617 2H14.8673C16.0345 2 16.9835 2.86282 16.9835 3.92228V4.54747H17.1762C18.3433 4.54747 19.2924 5.53689 19.2924 6.75252V9.33579C19.2924 9.69378 19.0135 9.98433 18.67 9.98433C18.3264 9.98433 18.0476 9.69378 18.0476 9.33579V6.75252C18.0476 6.25184 17.6567 5.84456 17.1762 5.84456H4.11617C3.80497 5.84456 3.5112 5.77918 3.24481 5.66919V19.7944C3.24481 20.2951 3.63568 20.7024 4.11617 20.7024H17.1757C17.6562 20.7024 18.0471 20.2951 18.0471 19.7944V15.8871ZM14.8788 3.31387H4.12968C3.6657 3.31387 3.25847 3.60943 3.25847 3.94647C3.25847 4.28351 3.6657 4.57908 4.12968 4.57908H15.75V3.94647C15.75 3.60943 15.3433 3.31387 14.8788 3.31387Z" fill="black"/>
<path d="M20.6511 9.45144C20.3357 9.30777 19.9701 9.45609 19.8318 9.78322C19.694 10.1098 19.8368 10.4907 20.1512 10.6344L21.5449 11.27C19.2687 12.0033 14.8124 13.255 12.0866 12.8095C11.7473 12.7517 11.429 12.9945 11.3758 13.347C11.3226 13.6994 11.5539 14.0302 11.8936 14.0855C12.3492 14.1604 12.8422 14.1935 13.36 14.1935C16.439 14.1935 20.378 13.0204 22.2821 12.3868L21.5016 14.2333C21.3638 14.5604 21.5066 14.9413 21.821 15.0844C21.9025 15.1216 21.9871 15.1387 22.0707 15.1387C22.3099 15.1387 22.5377 14.9945 22.6407 14.7527L23.9479 11.6602C24.0842 11.3346 23.9414 10.9532 23.6271 10.8096L20.6511 9.45144Z" fill="#00C4C3"/>
</svg>
