<svg width="32" height="32" viewBox="0 0 32 32" fill="none" xmlns="http://www.w3.org/2000/svg">
<g clip-path="url(#clip0_1_5071)">
<path d="M31.9917 1.99227C31.924 -0.0155755 29.3351 4.9465e-05 29.3351 4.9465e-05H2.66483C2.66483 4.9465e-05 -0.00219727 -0.0380445 -0.00219727 2.00005C-0.00219727 11.17 -0.00219727 26 -0.00219727 26H0.000386418C0.00559546 26.3008 0.142322 28 2.66483 28H7.99889V32L13.3329 28V24H7.99889V26H5.24851C2.58149 26 2.66483 24 2.66483 24V22H13.3329V20H7.99889V2.00005H29.3351V20H24.0011V22H29.3351C29.3351 22 29.3351 23 29.3351 24C29.3351 25.9258 26.5847 26 26.5847 26C26.5847 26 25.5638 26 24.0011 26V28H29.2518C32.0386 28 32.0021 26 32.0021 26L31.9917 1.99227ZM20.6673 12.0001H26.6681L18.667 4.00008L10.6659 12.0001H16.6667L10.6659 18.0001H16V32.0001H21.334V18.0001H26.6681L20.6673 12.0001Z" fill="#1A94AE"/>
</g>
<defs>
<clipPath id="clip0_1_5071">
<rect width="32" height="32" fill="white"/>
</clipPath>
</defs>
</svg>
