<svg width="32" height="32" viewBox="0 0 32 32" fill="none" xmlns="http://www.w3.org/2000/svg">
<path d="M11.7333 23.4669L8.53333 20.2669V14.9336L17.0667 23.4669H11.7333Z" fill="#1A94AE"/>
<path d="M28.7776 3.22266C28.7776 3.22266 19.2 3.20026 11.7333 10.6669C8.54399 13.8563 8.53332 19.2003 10.6667 21.3336C12.8 23.4669 18.144 23.4563 21.3333 20.2669C28.8 12.8003 28.7776 3.22266 28.7776 3.22266ZM18.1333 11.7336C18.1333 10.5549 19.088 9.60026 20.2667 9.60026C21.4453 9.60026 22.4 10.5549 22.4 11.7336C22.4 12.9123 21.4453 13.8669 20.2667 13.8669C19.088 13.8669 18.1333 12.9123 18.1333 11.7336Z" fill="#1A94AE"/>
<path d="M20.0651 19.9219C20.0651 19.9219 20.8725 23.9581 19.2576 25.572C16.8363 27.9933 12.8 28.8008 12.8 28.8008L13.8667 21.3341L20.0651 19.9219Z" fill="#1A94AE"/>
<path d="M12.0789 11.9343C12.0789 11.9343 8.04268 11.1268 6.42881 12.7418C4.00748 15.1631 3.20001 19.1994 3.20001 19.1994L10.6667 18.1327L12.0789 11.9343Z" fill="#1A94AE"/>
<path d="M10.1781 23.8293C10.1301 23.8975 10.1013 23.9765 10.0395 24.0373C8.99946 25.0773 7.43893 24.5578 7.43893 24.5578C7.43893 24.5578 6.9184 22.9973 7.95946 21.9573C8.02133 21.8954 8.0992 21.8677 8.16746 21.8186L7.68 21.3301C7.27466 21.4367 6.8896 21.6394 6.5728 21.9562C5.11573 23.4133 5.3472 26.6495 5.3472 26.6495C5.3472 26.6495 8.56426 26.9002 10.0405 25.4239C10.3573 25.1071 10.56 24.7221 10.6667 24.3167L10.1781 23.8293Z" fill="#1A94AE"/>
</svg>
