<svg width="32" height="32" viewBox="0 0 32 32" fill="none" xmlns="http://www.w3.org/2000/svg">
<path d="M22.6666 10.666C24.4347 10.666 26.1304 9.96364 27.3807 8.71339C28.6309 7.46315 29.3333 5.76746 29.3333 3.99935C29.3333 3.64573 29.1928 3.30659 28.9428 3.05654C28.6927 2.80649 28.3536 2.66602 28 2.66602H3.99997C3.64635 2.66602 3.30721 2.80649 3.05716 3.05654C2.80711 3.30659 2.66663 3.64573 2.66663 3.99935C2.66663 5.76746 3.36901 7.46315 4.61926 8.71339C5.8695 9.96364 7.56519 10.666 9.3333 10.666H10.6666V13.3327H6.66663C6.35471 13.3264 6.05045 13.4297 5.80682 13.6246C5.5632 13.8195 5.39564 14.0936 5.3333 14.3993L2.66663 27.7327C2.62847 27.9264 2.63379 28.1261 2.68221 28.3175C2.73063 28.5089 2.82095 28.6871 2.94663 28.8393C3.07353 28.9958 3.23423 29.1215 3.41667 29.2069C3.59911 29.2924 3.79853 29.3354 3.99997 29.3327H28C28.1969 29.3314 28.3911 29.2865 28.5686 29.2012C28.7461 29.1159 28.9026 28.9923 29.0266 28.8393C29.157 28.6894 29.2522 28.5122 29.3052 28.3207C29.3583 28.1292 29.3679 27.9283 29.3333 27.7327L26.6666 14.3993C26.6043 14.0936 26.4367 13.8195 26.1931 13.6246C25.9495 13.4297 25.6452 13.3264 25.3333 13.3327H21.3333V10.666H22.6666ZM13.3333 10.666H18.6666V13.3327H13.3333V10.666ZM16 25.3327C15.2088 25.3327 14.4355 25.0981 13.7777 24.6586C13.1199 24.219 12.6072 23.5943 12.3044 22.8634C12.0017 22.1325 11.9225 21.3282 12.0768 20.5523C12.2312 19.7764 12.6121 19.0637 13.1715 18.5043C13.7309 17.9448 14.4437 17.5639 15.2196 17.4095C15.9955 17.2552 16.7998 17.3344 17.5307 17.6372C18.2616 17.9399 18.8863 18.4526 19.3258 19.1104C19.7654 19.7682 20 20.5416 20 21.3327C20 22.3935 19.5785 23.411 18.8284 24.1611C18.0782 24.9113 17.0608 25.3327 16 25.3327Z" fill="#1A94AE"/>
</svg>
