<svg width="32" height="32" viewBox="0 0 32 32" fill="none" xmlns="http://www.w3.org/2000/svg">
<path d="M17.5896 3.7048C17.5916 3.6696 17.6 3.636 17.6 3.6C17.6 3.17565 17.4315 2.76869 17.1314 2.46863C16.8313 2.16857 16.4244 2 16 2C15.5757 2 15.1687 2.16857 14.8687 2.46863C14.5686 2.76869 14.4 3.17565 14.4 3.6C14.4 3.636 14.4084 3.6696 14.4104 3.7048C14.4353 4.10945 14.6136 4.48938 14.9089 4.76712C15.2043 5.04486 15.5944 5.1995 15.9998 5.1995C16.4052 5.1995 16.7954 5.04486 17.0907 4.76712C17.3861 4.48938 17.5648 4.10945 17.5896 3.7048Z" stroke="#1A94AE" stroke-width="4" stroke-linecap="round" stroke-linejoin="round"/>
<path d="M28.2952 17.59C28.3304 17.5924 28.364 17.6004 28.4 17.6004C28.8244 17.6004 29.2314 17.4318 29.5314 17.1318C29.8315 16.8317 30 16.4247 30 16.0004C30 15.576 29.8315 15.1691 29.5314 14.869C29.2314 14.569 28.8244 14.4004 28.4 14.4004C28.364 14.4004 28.3304 14.4088 28.2952 14.4108C27.8906 14.4357 27.5107 14.6139 27.2329 14.9093C26.9552 15.2046 26.8005 15.5948 26.8005 16.0002C26.8005 16.4056 26.9552 16.7958 27.2329 17.0911C27.5107 17.3864 27.8906 17.5647 28.2952 17.5896V17.59Z" stroke="#1A94AE" stroke-width="4" stroke-linecap="round" stroke-linejoin="round"/>
<path d="M17.5896 28.2955C17.592 28.3307 17.6 28.3643 17.6 28.4003C17.6 28.8246 17.4315 29.2316 17.1314 29.5317C16.8313 29.8317 16.4244 30.0003 16 30.0003C15.5757 30.0003 15.1687 29.8317 14.8687 29.5317C14.5686 29.2316 14.4 28.8246 14.4 28.4003C14.4 28.3643 14.4084 28.3307 14.4104 28.2955C14.4353 27.8908 14.6136 27.5109 14.9089 27.2332C15.2043 26.9554 15.5944 26.8008 15.9998 26.8008C16.4052 26.8008 16.7954 26.9554 17.0907 27.2332C17.3861 27.5109 17.5644 27.8908 17.5892 28.2955H17.5896Z" stroke="#1A94AE" stroke-width="4" stroke-linecap="round" stroke-linejoin="round"/>
<path d="M3.7048 17.59C4.10945 17.5651 4.48938 17.3868 4.76712 17.0915C5.04486 16.7962 5.1995 16.406 5.1995 16.0006C5.1995 15.5952 5.04486 15.205 4.76712 14.9097C4.48938 14.6143 4.10945 14.4361 3.7048 14.4112C3.6696 14.4088 3.636 14.4004 3.6 14.4004C3.17565 14.4004 2.76869 14.569 2.46863 14.869C2.16857 15.1691 2 15.576 2 16.0004C2 16.4247 2.16857 16.8317 2.46863 17.1318C2.76869 17.4318 3.17565 17.6004 3.6 17.6004C3.636 17.6004 3.6696 17.592 3.7048 17.59Z" stroke="#1A94AE" stroke-width="4" stroke-linecap="round" stroke-linejoin="round"/>
<path d="M28.2952 14.4107C27.9436 11.6944 26.7026 9.17105 24.7659 7.23436C22.8292 5.29767 20.3058 4.05667 17.5896 3.70508" stroke="#1A94AE" stroke-width="4" stroke-linecap="round" stroke-linejoin="round"/>
<path d="M28.2952 17.5898C27.9436 20.3061 26.7026 22.8295 24.7659 24.7662C22.8292 26.7029 20.3058 27.9438 17.5896 28.2954" stroke="#1A94AE" stroke-width="4" stroke-linecap="round" stroke-linejoin="round"/>
<path d="M3.70483 14.4107C4.05643 11.6944 5.29742 9.17105 7.23411 7.23436C9.1708 5.29767 11.6942 4.05667 14.4104 3.70508" stroke="#1A94AE" stroke-width="4" stroke-linecap="round" stroke-linejoin="round"/>
<path d="M14.4104 28.2954C11.6942 27.9438 9.1708 26.7029 7.23411 24.7662C5.29742 22.8295 4.05643 20.3061 3.70483 17.5898" stroke="#1A94AE" stroke-width="4" stroke-linecap="round" stroke-linejoin="round"/>
<path d="M16 24C20.4183 24 24 20.4183 24 16C24 11.5817 20.4183 8 16 8C11.5817 8 8 11.5817 8 16C8 20.4183 11.5817 24 16 24Z" stroke="#1A94AE" stroke-width="4" stroke-linecap="round" stroke-linejoin="round"/>
<path d="M21.0551 11.6029L12.8371 15.5473C12.8235 15.5541 12.8082 15.5571 12.793 15.5558C12.7778 15.5546 12.7633 15.5492 12.7509 15.5402C12.7385 15.5313 12.7289 15.5191 12.7229 15.5051C12.717 15.491 12.715 15.4756 12.7171 15.4605C12.7904 15.0091 12.9559 14.5776 13.2033 14.193C13.4507 13.8083 13.7747 13.4787 14.155 13.2248C14.5354 12.9708 14.9639 12.7979 15.414 12.7169C15.8641 12.6359 16.3261 12.6484 16.7711 12.7537C16.9502 12.7924 17.137 12.7687 17.3007 12.6865L18.4163 12.1509C18.4428 12.1383 18.4654 12.1188 18.4818 12.0945C18.4981 12.0702 18.5076 12.0419 18.5093 12.0126C18.511 11.9833 18.5048 11.9541 18.4913 11.9281C18.4778 11.902 18.4576 11.8801 18.4327 11.8645C17.7045 11.4354 16.8757 11.2066 16.0305 11.2013C15.1852 11.196 14.3536 11.4143 13.62 11.8343C12.8864 12.2542 12.277 12.8608 11.8536 13.5923C11.4302 14.3239 11.2078 15.1545 11.2091 15.9997C11.2091 16.0709 11.2135 16.1425 11.2171 16.2137H11.2147C11.2166 16.246 11.2088 16.2782 11.1924 16.306C11.1759 16.3339 11.1515 16.3562 11.1223 16.3701L10.9423 16.4565C10.8732 16.4897 10.8149 16.5417 10.774 16.6066C10.7332 16.6715 10.7115 16.7467 10.7115 16.8233V17.9333C10.7115 17.9609 10.7185 17.9879 10.7318 18.012C10.7451 18.0361 10.7643 18.0565 10.7876 18.0711C10.8109 18.0858 10.8375 18.0943 10.865 18.0959C10.8925 18.0975 10.9199 18.092 10.9447 18.0801L21.0575 13.2257C21.1267 13.1926 21.185 13.1405 21.2259 13.0756C21.2667 13.0107 21.2884 12.9356 21.2883 12.8589V11.7497C21.2884 11.7222 21.2814 11.6951 21.2681 11.671C21.2548 11.6469 21.2356 11.6266 21.2123 11.612C21.189 11.5973 21.1624 11.5888 21.1349 11.5872C21.1074 11.5856 21.08 11.591 21.0551 11.6029Z" fill="#1A94AE"/>
<path d="M10.9447 20.3975L19.1627 16.4531C19.1764 16.4463 19.1917 16.4434 19.2069 16.4446C19.2221 16.4459 19.2366 16.4513 19.249 16.4602C19.2614 16.4691 19.271 16.4813 19.277 16.4953C19.2829 16.5094 19.2849 16.5248 19.2827 16.5399C19.2095 16.9913 19.044 17.4228 18.7966 17.8075C18.5492 18.1921 18.2252 18.5217 17.8449 18.7757C17.4645 19.0296 17.036 19.2025 16.5859 19.2836C16.1358 19.3646 15.6738 19.3521 15.2287 19.2467C15.0497 19.208 14.8628 19.2317 14.6991 19.3139L13.5835 19.8495C13.5571 19.8621 13.5345 19.8816 13.5181 19.906C13.5018 19.9303 13.4922 19.9586 13.4906 19.9879C13.4889 20.0171 13.4951 20.0463 13.5086 20.0724C13.5221 20.0984 13.5423 20.1204 13.5671 20.1359C14.2954 20.565 15.1242 20.7939 15.9694 20.7992C16.8147 20.8045 17.6463 20.5861 18.3799 20.1662C19.1135 19.7462 19.7229 19.1397 20.1463 18.4081C20.5697 17.6765 20.792 16.846 20.7907 16.0007C20.7907 15.9295 20.7863 15.8579 20.7827 15.7867H20.7851C20.7833 15.7544 20.791 15.7223 20.8075 15.6944C20.824 15.6666 20.8483 15.6442 20.8775 15.6303L21.0575 15.5439C21.1267 15.5107 21.185 15.4587 21.2259 15.3938C21.2667 15.3289 21.2884 15.2538 21.2883 15.1771V14.0671C21.2884 14.0396 21.2814 14.0125 21.2681 13.9884C21.2548 13.9643 21.2356 13.944 21.2123 13.9293C21.189 13.9147 21.1624 13.9061 21.1349 13.9046C21.1074 13.903 21.08 13.9084 21.0551 13.9203L10.9423 18.7747C10.8732 18.8079 10.8149 18.8599 10.774 18.9248C10.7332 18.9897 10.7115 19.0648 10.7115 19.1415V20.2511C10.7116 20.2786 10.7186 20.3056 10.732 20.3297C10.7453 20.3537 10.7645 20.374 10.7878 20.3886C10.8111 20.4032 10.8377 20.4117 10.8651 20.4133C10.8926 20.4148 10.92 20.4094 10.9447 20.3975Z" fill="#1A94AE"/>
</svg>
