<svg width="32" height="32" viewBox="0 0 32 32" fill="none" xmlns="http://www.w3.org/2000/svg">
<path d="M9.79896 4.23698C10.3485 3.98348 10.2695 3.59248 10.1885 3.39898L10.129 3.28298C9.88746 2.81148 9.48746 2.84498 9.25946 2.91098C3.97196 5.19898 0.237456 10.381 0.0799561 16.4725C0.108456 16.8855 0.327456 16.986 0.475956 17.0035H0.832456C0.998956 16.9725 1.22746 16.837 1.26946 16.34C1.27346 16.3 1.27946 16.2685 1.28596 16.2365C1.63396 10.854 5.01046 6.31148 9.73246 4.27198C9.75696 4.26048 9.77046 4.25048 9.79896 4.23698Z" fill="#1A94AE"/>
<path d="M22.9075 2.98139C22.293 2.73789 22.0105 3.02239 21.9125 3.18289L21.7825 3.43639C21.717 3.60489 21.668 3.97639 22.3145 4.28589C22.3295 4.29289 22.3385 4.29939 22.352 4.30689C27.051 6.37339 30.397 10.9284 30.7185 16.3099C30.721 16.3099 30.728 16.3059 30.728 16.3059C30.728 16.3059 30.7045 17.0149 31.291 17.0149H31.451C31.6095 17.0019 31.89 16.9074 31.9195 16.4674C31.763 10.4429 28.1045 5.30539 22.9075 2.98139Z" fill="#1A94AE"/>
<path d="M16 5.12891C9.37251 5.12891 3.99951 10.5009 3.99951 17.1284C3.99951 23.7559 9.37251 29.1289 16 29.1289C22.627 29.1289 28.0005 23.7559 28.0005 17.1284C28.0005 10.5009 22.627 5.12891 16 5.12891ZM22.338 18.8254C22.331 18.9504 22.318 19.0764 22.302 19.2034C21.899 22.3424 19.2235 24.7704 15.975 24.7704C12.979 24.7704 10.477 22.7044 9.79051 19.9209C9.07401 16.4769 11.367 13.9549 11.5385 13.7709C11.8565 13.4314 12.166 13.1344 12.3995 12.9209L12.4005 12.9269C12.585 12.7544 12.762 12.5994 12.9235 12.4619H12.9245L12.927 12.4599C12.927 12.4599 13.757 11.7834 13.5805 12.4594C13.3165 13.3729 12.9415 15.0109 13.2475 16.1054C13.2475 16.1054 13.25 16.1124 13.25 16.1139C13.264 16.1634 13.2845 16.2064 13.3015 16.2519C13.3955 16.4689 13.632 16.8454 14.1445 16.7934C14.2885 16.7934 14.642 16.5079 14.75 16.1194C15.3295 13.7889 14.7775 11.6159 14.324 10.3874C14.324 10.3869 14.324 10.3869 14.324 10.3869C14.159 9.90591 14.201 9.66791 14.2035 9.65841C14.2555 9.53941 14.36 9.44341 14.5725 9.50841C14.6045 9.52441 14.639 9.53641 14.6705 9.55291L14.6695 9.55191C14.717 9.57391 14.762 9.59041 14.819 9.62791C14.8535 9.64991 14.88 9.66291 14.907 9.67641C15.144 9.81241 15.5345 10.0629 15.983 10.4559C15.9855 10.4569 15.9855 10.4579 15.9865 10.4584C15.988 10.4599 15.989 10.4609 15.9895 10.4624C17.11 11.4459 18.5695 13.3214 18.8425 16.4869C18.8445 16.4869 18.848 16.4854 18.848 16.4854C18.848 16.4854 18.869 17.0554 19.2245 17.2039C19.58 17.3534 19.8305 16.8109 19.8685 16.6264C19.8805 16.5729 19.894 16.5119 19.906 16.4429C19.9065 16.4374 19.9345 16.1209 19.93 15.6689C19.908 14.8369 19.7155 14.1984 19.4185 13.6459L19.428 13.6514C19.428 13.6514 19.385 13.5009 19.539 13.4154C19.6125 13.3659 19.73 13.3639 19.841 13.4659C20.3945 13.9709 21.121 14.6829 21.4555 15.2174C21.9285 16.0539 22.4 17.2604 22.3465 18.7049C22.3425 18.7444 22.341 18.7854 22.338 18.8254Z" fill="#1A94AE"/>
</svg>
