<svg width="32" height="32" viewBox="0 0 32 32" fill="none" xmlns="http://www.w3.org/2000/svg">
<path d="M18.4633 15.3315H26C26.7364 15.3315 27.3333 15.9284 27.3333 16.6645C27.3333 17.4008 26.7364 17.9976 26 17.9976H22.8176C23.6989 19.0307 24.149 20.2305 24.149 21.5763C24.149 25.4808 19.7748 28.128 14.7713 27.5467C11.6678 27.186 9.48563 25.9217 8.33633 23.7708C7.98935 23.1215 8.05947 22.4169 8.66651 21.9965C9.27355 21.5763 10.3413 21.8652 10.6883 22.5145C11.3988 23.8444 12.8262 24.6365 15.0792 24.8984C18.5281 25.2991 21.4825 23.6855 21.4825 21.5763C21.4825 20.1121 20.7525 18.9908 18.6728 17.9976H6.66659C5.93025 17.9976 5.33331 17.4008 5.33331 16.6645C5.33331 15.9284 5.93025 15.3315 6.66659 15.3315H18.4154C18.4404 15.3312 18.4418 15.3312 18.4633 15.3315ZM9.31537 12.9252C9.17574 12.7144 9.04363 12.492 8.91859 12.2462C8.51805 11.459 8.2943 10.6267 8.33878 9.79916C8.55121 5.84719 12.2504 3.51652 17.141 4.08479C20.1549 4.43499 22.46 5.5297 24.0034 7.39966C24.4721 7.96751 24.3672 8.79734 23.7993 9.26594C23.2313 9.73454 22.4013 9.70047 21.9326 9.13263C20.8489 7.81958 19.1756 7.00523 16.8333 6.73307C13.4192 6.33638 11.0049 7.69039 11.0049 9.83034C11.0049 10.7818 11.3234 11.4564 12.0206 12.2428C12.3206 12.5814 12.8833 12.9434 13.7084 13.329H9.58942C9.44091 13.1114 9.34955 12.9768 9.31537 12.9252Z" fill="#1A94AE"/>
</svg>
