<svg width="32" height="32" viewBox="0 0 32 32" fill="none" xmlns="http://www.w3.org/2000/svg">
<g clip-path="url(#clip0_1_4820)">
<path d="M31.5608 12.4602L30.1466 11.046C29.5608 10.4602 28.611 10.4602 28.0253 11.046L27.6717 11.3995L20.6006 4.32848L20.9542 3.97492C21.54 3.38911 21.54 2.43936 20.9542 1.85361L19.54 0.439359C18.9542 -0.146453 18.0044 -0.146453 17.4187 0.439359L9.64048 8.21755C9.05467 8.80336 9.05467 9.75311 9.64048 10.3389L11.0547 11.753C11.6405 12.3389 12.5902 12.3389 13.176 11.753L13.5295 11.3995L16.0044 13.8744L10.9394 18.9394L10.5859 18.5858C9.80479 17.8047 8.53848 17.8047 7.75742 18.5858L0.585919 25.7574C-0.195144 26.5385 -0.195144 27.8048 0.585919 28.5859L3.41436 31.4143C4.19542 32.1954 5.46173 32.1954 6.24279 31.4143L13.4144 24.2427C14.1954 23.4617 14.1954 22.1954 13.4144 21.4143L13.0608 21.0607L18.1258 15.9957L20.6007 18.4706L20.2471 18.8242C19.6613 19.41 19.6613 20.3597 20.2471 20.9455L21.6613 22.3597C22.2471 22.9455 23.1969 22.9455 23.7826 22.3597L31.5608 14.5815C32.1465 13.9957 32.1465 13.046 31.5608 12.4602Z" fill="#1A94AE"/>
</g>
<defs>
<clipPath id="clip0_1_4820">
<rect width="32" height="32" fill="white"/>
</clipPath>
</defs>
</svg>
