<svg width="32" height="32" viewBox="0 0 32 32" fill="none" xmlns="http://www.w3.org/2000/svg">
<path d="M30 5.25H22C21.4696 5.25 20.9609 5.46071 20.5858 5.83579C20.2107 6.21086 20 6.71957 20 7.25C20 7.78043 20.2107 8.28914 20.5858 8.66421C20.9609 9.03929 21.4696 9.25 22 9.25H25.1719L18 16.4219L11.4141 9.83593C11.2284 9.65018 11.008 9.50282 10.7653 9.40229C10.5227 9.30175 10.2626 9.25 10 9.25C9.73738 9.25 9.47732 9.30175 9.23469 9.40229C8.99206 9.50282 8.77161 9.65018 8.58595 9.83593L0.585949 17.8359C0.212639 18.2113 0.00341576 18.7194 0.00415233 19.2488C0.0048889 19.7783 0.215525 20.2858 0.589878 20.6601C0.964232 21.0345 1.47175 21.2451 2.00117 21.2459C2.53058 21.2466 3.03869 21.0374 3.41408 20.6641L10 14.0781L16.5859 20.6641C16.7716 20.8498 16.9921 20.9972 17.2347 21.0977C17.4773 21.1983 17.7374 21.25 18 21.25C18.2626 21.25 18.5227 21.1983 18.7653 21.0977C19.008 20.9972 19.2284 20.8498 19.4141 20.6641L28 12.0781V15.25C28 15.7804 28.2107 16.2891 28.5858 16.6642C28.9609 17.0393 29.4696 17.25 30 17.25C30.5304 17.25 31.0392 17.0393 31.4142 16.6642C31.7893 16.2891 32 15.7804 32 15.25V7.25C32.0002 6.98731 31.9485 6.72718 31.8481 6.48446C31.7476 6.24174 31.6003 6.0212 31.4146 5.83545C31.2288 5.64971 31.0083 5.50239 30.7656 5.40194C30.5228 5.30148 30.2627 5.24985 30 5.25Z" fill="#1A94AE"/>
</svg>
