<svg width="32" height="32" viewBox="0 0 32 32" fill="none" xmlns="http://www.w3.org/2000/svg">
<path d="M0 2.13281V27.7328H1.06667V29.8661H6.4V27.7328H25.6V29.8661H30.9333V27.7328H32V23.4661V20.2661V9.59948V6.39948V2.13281H0ZM5.33333 28.7995H2.13333V27.7328H5.33333V28.7995ZM29.8667 28.7995H26.6667V27.7328H29.8667V28.7995ZM28.8 6.39948H26.6667V9.59948H28.8V20.2661H26.6667V23.4661H28.7984L28.7957 24.5328L3.2 24.5285L3.20427 5.33281L28.8 5.33708V6.39948ZM29.8667 7.46615H30.9333V8.53281H29.8667H27.7333V7.46615H29.8667ZM27.7333 22.3995V21.3328H29.8667H30.9333V22.3995H29.8667H27.7333ZM30.9333 20.2661H29.8667V9.59948H30.9333V20.2661ZM29.8667 6.39948V5.33708C29.8667 4.74615 29.3867 4.26615 28.7957 4.26615H3.20427C2.61387 4.26615 2.13333 4.74615 2.13333 5.33708V24.5285C2.13333 25.1195 2.61387 25.5995 3.20427 25.5995H28.7957C29.3867 25.5995 29.8667 25.1195 29.8667 24.5285V23.4661H30.9333V26.6661H25.6H6.4H1.06667V3.19948H30.9333V6.39948H29.8667Z" fill="#1A94AE"/>
<path d="M10.6666 15.4671C10.9612 15.4671 11.2 15.2283 11.2 14.9337C11.2 14.6392 10.9612 14.4004 10.6666 14.4004C10.3721 14.4004 10.1333 14.6392 10.1333 14.9337C10.1333 15.2283 10.3721 15.4671 10.6666 15.4671Z" fill="#1A94AE"/>
<path d="M4.80006 15.4665H6.97606C7.06672 16.0975 7.31526 16.6767 7.68112 17.1647L6.14139 18.7044C5.93286 18.9129 5.93286 19.25 6.14139 19.4585C6.24539 19.5625 6.38192 19.6148 6.51846 19.6148C6.65499 19.6148 6.79152 19.5625 6.89552 19.4585L8.43526 17.9188C8.92326 18.2847 9.50246 18.5332 10.1339 18.6239V20.7999C10.1339 21.0948 10.3729 21.3332 10.6673 21.3332C10.9617 21.3332 11.2006 21.0948 11.2006 20.7999V18.6239C11.8315 18.5332 12.4107 18.2847 12.8993 17.9188L14.439 19.4585C14.543 19.5625 14.6795 19.6148 14.8161 19.6148C14.9526 19.6148 15.0891 19.5625 15.1931 19.4585C15.4017 19.25 15.4017 18.9129 15.1931 18.7044L13.6534 17.1647C14.0193 16.6761 14.2673 16.0975 14.3585 15.4665H16.5334C16.8278 15.4665 17.0667 15.2281 17.0667 14.9332C17.0667 14.6383 16.8278 14.3999 16.5334 14.3999H14.3574C14.2667 13.7689 14.0182 13.1897 13.6523 12.7017L15.1921 11.162C15.4006 10.9535 15.4006 10.6164 15.1921 10.4079C14.9835 10.1993 14.6465 10.1993 14.4379 10.4079L12.8982 11.9476C12.4102 11.5817 11.831 11.3332 11.2001 11.2425V9.06654C11.2001 8.7716 10.9611 8.5332 10.6667 8.5332C10.3723 8.5332 10.1334 8.7716 10.1334 9.06654V11.2425C9.50246 11.3332 8.92326 11.5817 8.43472 11.9476L6.89499 10.4079C6.68646 10.1993 6.34939 10.1993 6.14086 10.4079C5.93232 10.6164 5.93232 10.9535 6.14086 11.162L7.68059 12.7017C7.31526 13.1897 7.06672 13.7689 6.97606 14.3999H4.80006C4.50566 14.3999 4.26672 14.6383 4.26672 14.9332C4.26672 15.2281 4.50566 15.4665 4.80006 15.4665ZM10.6667 12.2665C12.1371 12.2665 13.3334 13.4628 13.3334 14.9332C13.3334 16.4036 12.1371 17.5999 10.6667 17.5999C9.19632 17.5999 8.00006 16.4036 8.00006 14.9332C8.00006 13.4628 9.19632 12.2665 10.6667 12.2665Z" fill="#1A94AE"/>
<path d="M19.7333 14.9336C19.4389 14.9336 19.2 15.172 19.2 15.4669V16.0003C19.2 16.2952 19.4389 16.5336 19.7333 16.5336C20.0277 16.5336 20.2666 16.2952 20.2666 16.0003V15.4669C20.2666 15.172 20.0277 14.9336 19.7333 14.9336Z" fill="#1A94AE"/>
<path d="M22.4 14.9336C22.1056 14.9336 21.8667 15.172 21.8667 15.4669V16.0003C21.8667 16.2952 22.1056 16.5336 22.4 16.5336C22.6944 16.5336 22.9334 16.2952 22.9334 16.0003V15.4669C22.9334 15.172 22.6944 14.9336 22.4 14.9336Z" fill="#1A94AE"/>
<path d="M25.0667 14.9336C24.7723 14.9336 24.5333 15.172 24.5333 15.4669V16.0003C24.5333 16.2952 24.7723 16.5336 25.0667 16.5336C25.3616 16.5336 25.6 16.2952 25.6 16.0003V15.4669C25.6 15.172 25.3616 14.9336 25.0667 14.9336Z" fill="#1A94AE"/>
<path d="M19.7333 17.0664C19.4389 17.0664 19.2 17.3048 19.2 17.5997V18.1331C19.2 18.428 19.4389 18.6664 19.7333 18.6664C20.0277 18.6664 20.2666 18.428 20.2666 18.1331V17.5997C20.2666 17.3048 20.0277 17.0664 19.7333 17.0664Z" fill="#1A94AE"/>
<path d="M22.4 17.0664C22.1056 17.0664 21.8667 17.3048 21.8667 17.5997V18.1331C21.8667 18.428 22.1056 18.6664 22.4 18.6664C22.6944 18.6664 22.9334 18.428 22.9334 18.1331V17.5997C22.9334 17.3048 22.6944 17.0664 22.4 17.0664Z" fill="#1A94AE"/>
<path d="M25.0667 17.0664C24.7723 17.0664 24.5333 17.3048 24.5333 17.5997V18.1331C24.5333 18.428 24.7723 18.6664 25.0667 18.6664C25.3616 18.6664 25.6 18.428 25.6 18.1331V17.5997C25.6 17.3048 25.3616 17.0664 25.0667 17.0664Z" fill="#1A94AE"/>
<path d="M19.7333 19.1992C19.4389 19.1992 19.2 19.4376 19.2 19.7326V20.2659C19.2 20.5608 19.4389 20.7992 19.7333 20.7992C20.0277 20.7992 20.2666 20.5608 20.2666 20.2659V19.7326C20.2666 19.4376 20.0277 19.1992 19.7333 19.1992Z" fill="#1A94AE"/>
<path d="M22.4 19.1992C22.1056 19.1992 21.8667 19.4376 21.8667 19.7326V20.2659C21.8667 20.5608 22.1056 20.7992 22.4 20.7992C22.6944 20.7992 22.9334 20.5608 22.9334 20.2659V19.7326C22.9334 19.4376 22.6944 19.1992 22.4 19.1992Z" fill="#1A94AE"/>
<path d="M25.0667 19.1992C24.7723 19.1992 24.5333 19.4376 24.5333 19.7326V20.2659C24.5333 20.5608 24.7723 20.7992 25.0667 20.7992C25.3616 20.7992 25.6 20.5608 25.6 20.2659V19.7326C25.6 19.4376 25.3616 19.1992 25.0667 19.1992Z" fill="#1A94AE"/>
<path d="M26.1333 10.1328H18.6666V13.3328H26.1333V10.1328ZM25.0666 12.2661H19.7333V11.1995H25.0666V12.2661Z" fill="#1A94AE"/>
</svg>
