<svg width="18" height="18" viewBox="0 0 18 18" fill="none" xmlns="http://www.w3.org/2000/svg">
<path d="M15 2.25H3C1.35 2.25 0 3.6 0 5.25V12.75C0 14.4 1.35 15.75 3 15.75H15C16.65 15.75 18 14.4 18 12.75V5.25C18 3.6 16.65 2.25 15 2.25ZM16.2 6.6L10.275 10.575C9.9 10.8 9.45 10.95 9 10.95C8.55 10.95 8.1 10.8 7.725 10.575L1.8 6.6C1.5 6.375 1.425 5.925 1.65 5.55C1.875 5.25 2.325 5.175 2.7 5.4L8.625 9.375C8.85 9.525 9.225 9.525 9.45 9.375L15.375 5.4C15.75 5.175 16.2 5.25 16.425 5.625C16.575 5.925 16.5 6.375 16.2 6.6Z" fill="white"/>
</svg>
