<svg width="18" height="18" viewBox="0 0 18 18" fill="none" xmlns="http://www.w3.org/2000/svg">
<path d="M12.7969 0H5.20312C4.79287 0 4.39941 0.162974 4.10932 0.453069C3.81922 0.743165 3.65625 1.13662 3.65625 1.54688V16.4531C3.65625 16.8634 3.81922 17.2568 4.10932 17.5469C4.39941 17.837 4.79287 18 5.20312 18H12.7969C13.2071 18 13.6006 17.837 13.8907 17.5469C14.1808 17.2568 14.3438 16.8634 14.3438 16.4531V1.54688C14.3438 1.13662 14.1808 0.743165 13.8907 0.453069C13.6006 0.162974 13.2071 0 12.7969 0V0ZM4.5 3.19078H13.5V14.0034H4.5V3.19078ZM5.20312 0.84375H12.7969C12.8892 0.84375 12.9806 0.861937 13.0659 0.897272C13.1513 0.932608 13.2288 0.984399 13.2941 1.04969C13.3594 1.11498 13.4111 1.19249 13.4465 1.2778C13.4818 1.36311 13.5 1.45454 13.5 1.54688V2.34703H4.5V1.54688C4.5 1.36039 4.57408 1.18155 4.70594 1.04969C4.8378 0.917829 5.01664 0.84375 5.20312 0.84375ZM12.7969 17.1562H5.20312C5.01664 17.1562 4.8378 17.0822 4.70594 16.9503C4.57408 16.8184 4.5 16.6396 4.5 16.4531V14.8472H13.5V16.4531C13.5 16.5455 13.4818 16.6369 13.4465 16.7222C13.4111 16.8075 13.3594 16.885 13.2941 16.9503C13.2288 17.0156 13.1513 17.0674 13.0659 17.1027C12.9806 17.1381 12.8892 17.1562 12.7969 17.1562Z" fill="white"/>
<path d="M9 16.8633C9.46599 16.8633 9.84375 16.4855 9.84375 16.0195C9.84375 15.5535 9.46599 15.1758 9 15.1758C8.53401 15.1758 8.15625 15.5535 8.15625 16.0195C8.15625 16.4855 8.53401 16.8633 9 16.8633Z" fill="white"/>
<path d="M7.89331 2H10.1082C10.22 2 10.3273 1.95555 10.4065 1.87644C10.4856 1.79732 10.53 1.69001 10.53 1.57812C10.53 1.46624 10.4856 1.35893 10.4065 1.27981C10.3273 1.2007 10.22 1.15625 10.1082 1.15625H7.89331C7.78142 1.15625 7.67412 1.2007 7.595 1.27981C7.51588 1.35893 7.47144 1.46624 7.47144 1.57812C7.47144 1.69001 7.51588 1.79732 7.595 1.87644C7.67412 1.95555 7.78142 2 7.89331 2Z" fill="white"/>
</svg>
