<svg width="512" height="512" viewBox="0 0 512 512" fill="none" xmlns="http://www.w3.org/2000/svg">
<path d="M377.816 284.229C363.725 305.225 339.772 319.073 312.641 319.073C269.387 319.073 234.197 283.884 234.197 240.629C234.197 237.803 234.396 234.968 234.748 232.137C226.425 244.584 221.565 259.543 221.565 275.641C221.565 318.926 256.654 354.015 299.939 354.015C305.929 354.015 311.754 353.321 317.359 352.048C345.932 339.053 368.104 314.441 377.816 284.229Z" fill="url(#paint0_linear_281_2)"/>
<path d="M222.702 275.072C222.702 258.975 227.562 244.015 235.885 231.568C238.041 214.22 246.664 197.041 260.307 183.396C282.21 161.496 293.733 146.773 304.115 117.429C291.666 99.5505 281.511 79.6655 272.124 53.1213C253.636 105.393 232.193 131.857 196.065 167.982C172.314 191.733 159.911 221.411 159.911 249.296C159.911 311.266 210.152 361.507 272.124 361.507C288.666 361.507 304.361 357.907 318.496 351.479C312.891 352.752 307.066 353.446 301.076 353.446C257.791 353.446 222.702 318.357 222.702 275.072Z" fill="url(#paint1_linear_281_2)"/>
<path d="M352.759 197.887C335.285 180.415 323.453 166.548 313.779 147.272C304.103 166.549 292.271 180.416 274.797 197.887C273.133 199.551 271.578 201.283 270.114 203.063C260.975 214.179 255.827 227.35 255.827 240.06C255.827 272.015 281.825 298.012 313.779 298.012C345.397 298.012 371.167 272.554 371.705 241.061C371.71 240.727 371.73 240.396 371.73 240.06C371.73 225.315 364.816 209.943 352.759 197.887Z" fill="url(#paint2_radial_281_2)"/>
<path d="M57.8435 443.354H48.7536V393.241H57.8435V413.723H89.7534V393.241H98.8313V443.354H89.7534V422.872H57.8435V443.354ZM157.498 443.354H111.464V426.547C111.464 425.68 111.563 424.765 111.762 423.803C111.961 422.833 112.271 421.87 112.693 420.916C113.114 419.962 113.655 419.055 114.315 418.196C114.983 417.329 115.786 416.566 116.725 415.906C117.671 415.238 118.761 414.705 119.993 414.307C121.226 413.918 122.626 413.723 124.192 413.723H144.662C145.903 413.723 146.817 413.413 147.406 412.792C148.002 412.172 148.301 411.27 148.301 410.085V406.065C148.301 404.832 147.998 403.901 147.394 403.273C146.79 402.645 145.903 402.331 144.734 402.331H115.556V393.241H144.734C146.277 393.241 147.664 393.44 148.897 393.837C150.13 394.227 151.219 394.756 152.166 395.424C153.112 396.084 153.923 396.847 154.599 397.714C155.267 398.573 155.82 399.476 156.257 400.422C156.687 401.368 157.001 402.323 157.2 403.285C157.398 404.255 157.498 405.158 157.498 405.993V410.085C157.498 412.439 157.072 414.423 156.221 416.037C155.37 417.659 154.305 418.98 153.024 419.998C151.744 421.008 150.364 421.739 148.885 422.192C147.398 422.646 146.014 422.872 144.734 422.872H124.192C123.445 422.872 122.848 422.98 122.403 423.194C121.965 423.401 121.624 423.68 121.377 424.03C121.13 424.379 120.948 424.773 120.828 425.21C120.717 425.656 120.625 426.101 120.554 426.547V434.265H157.498V443.354ZM168.687 430.602V418.292C168.687 417.433 168.787 416.526 168.985 415.572C169.184 414.618 169.494 413.667 169.916 412.721C170.337 411.775 170.878 410.872 171.538 410.013C172.206 409.154 173.009 408.399 173.948 407.747C174.894 407.094 175.984 406.57 177.216 406.172C178.449 405.774 179.849 405.575 181.415 405.575H206.049V414.665H181.415C180.222 414.665 179.32 414.967 178.707 415.572C178.087 416.176 177.777 417.107 177.777 418.363V430.602C177.777 431.787 178.091 432.694 178.719 433.322C179.348 433.95 180.27 434.265 181.487 434.265H206.049V443.354H181.415C180.159 443.354 178.783 443.132 177.288 442.686C175.801 442.249 174.421 441.521 173.149 440.503C171.876 439.493 170.814 438.177 169.964 436.555C169.113 434.941 168.687 432.956 168.687 430.602ZM226.018 443.354H216.928V418.292C216.928 416.733 217.127 415.337 217.524 414.105C217.922 412.872 218.455 411.782 219.123 410.836C219.783 409.89 220.542 409.087 221.401 408.426C222.268 407.758 223.175 407.218 224.121 406.804C225.059 406.383 226.014 406.072 226.984 405.874C227.946 405.675 228.849 405.575 229.692 405.575H250.21V414.665H229.763C228.523 414.665 227.588 414.971 226.96 415.584C226.332 416.204 226.018 417.107 226.018 418.292V443.354ZM259.55 430.602V405.575H268.64V430.602C268.64 431.787 268.954 432.694 269.582 433.322C270.21 433.95 271.141 434.265 272.374 434.265H288.692V443.354H272.302C270.998 443.354 269.606 443.132 268.127 442.686C266.648 442.249 265.268 441.521 263.987 440.503C262.707 439.493 261.645 438.177 260.802 436.555C259.967 434.941 259.55 432.956 259.55 430.602ZM272.302 459.745V450.655H288.692C289.909 450.655 290.82 450.341 291.424 449.713C292.028 449.084 292.331 448.178 292.331 446.993V405.575H301.421V446.993C301.421 448.551 301.222 449.955 300.824 451.204C300.426 452.444 299.902 453.538 299.249 454.484C298.597 455.43 297.842 456.234 296.983 456.894C296.116 457.562 295.213 458.103 294.275 458.516C293.329 458.938 292.378 459.248 291.424 459.447C290.47 459.645 289.559 459.745 288.692 459.745H272.302ZM322.535 455.164H313.457V418.292C313.457 416.733 313.656 415.337 314.053 414.105C314.443 412.872 314.972 411.782 315.64 410.836C316.3 409.89 317.063 409.087 317.93 408.426C318.789 407.758 319.692 407.218 320.638 406.804C321.576 406.383 322.531 406.072 323.501 405.874C324.471 405.675 325.374 405.575 326.209 405.575H342.599C344.158 405.575 345.558 405.774 346.798 406.172C348.031 406.57 349.12 407.094 350.067 407.747C351.005 408.399 351.808 409.154 352.476 410.013C353.136 410.872 353.677 411.775 354.099 412.721C354.52 413.667 354.83 414.618 355.029 415.572C355.22 416.526 355.315 417.433 355.315 418.292V430.602C355.315 432.161 355.121 433.565 354.731 434.813C354.333 436.054 353.808 437.147 353.156 438.094C352.504 439.04 351.745 439.843 350.878 440.503C350.019 441.171 349.116 441.712 348.17 442.126C347.232 442.547 346.285 442.857 345.331 443.056C344.369 443.255 343.458 443.354 342.599 443.354H326.209V434.265H342.599C343.808 434.265 344.719 433.95 345.331 433.322C345.935 432.694 346.238 431.787 346.238 430.602V418.363C346.238 417.107 345.927 416.176 345.307 415.572C344.687 414.967 343.784 414.665 342.599 414.665H326.28C325.048 414.665 324.117 414.971 323.489 415.584C322.853 416.204 322.535 417.107 322.535 418.292V455.164ZM375.786 414.665H363.964V405.575H375.786V393.241H384.971V405.575H400.836V414.665H384.971V443.354H375.786V414.665ZM409.831 423.087V413.508C409.831 410.478 410.36 407.675 411.417 405.098C412.483 402.53 413.946 400.319 415.807 398.466C417.676 396.613 419.891 395.161 422.452 394.112C425.012 393.062 427.796 392.537 430.802 392.537H443.101C446.107 392.537 448.886 393.062 451.439 394.112C453.992 395.161 456.199 396.613 458.059 398.466C459.928 400.319 461.384 402.53 462.425 405.098C463.475 407.675 464 410.478 464 413.508V423.087C464 426.141 463.475 428.948 462.425 431.509C461.384 434.07 459.928 436.281 458.059 438.141C456.199 440.01 453.992 441.462 451.439 442.496C448.886 443.537 446.107 444.058 443.101 444.058H430.802C427.796 444.058 425.012 443.537 422.452 442.496C419.891 441.462 417.676 440.01 415.807 438.141C413.946 436.281 412.483 434.07 411.417 431.509C410.36 428.948 409.831 426.141 409.831 423.087ZM418.921 413.508V423.087C418.921 424.876 419.207 426.499 419.779 427.954C420.344 429.417 421.151 430.666 422.201 431.7C423.251 432.734 424.503 433.537 425.959 434.109C427.414 434.682 429.028 434.968 430.802 434.968H443.029C444.802 434.968 446.417 434.682 447.872 434.109C449.327 433.537 450.58 432.734 451.63 431.7C452.679 430.666 453.491 429.417 454.063 427.954C454.628 426.499 454.91 424.876 454.91 423.087V413.508C454.91 411.711 454.628 410.085 454.063 408.629C453.491 407.174 452.687 405.929 451.654 404.895C450.612 403.862 449.363 403.058 447.908 402.486C446.453 401.913 444.85 401.627 443.101 401.627H430.802C429.028 401.627 427.414 401.913 425.959 402.486C424.503 403.058 423.251 403.862 422.201 404.895C421.151 405.929 420.344 407.174 419.779 408.629C419.207 410.085 418.921 411.711 418.921 413.508Z" fill="#2DB8FF"/>
<defs>
<linearGradient id="paint0_linear_281_2" x1="221.565" y1="293.076" x2="377.816" y2="293.076" gradientUnits="userSpaceOnUse">
<stop stop-color="#3856FF"/>
<stop offset="1" stop-color="#24FFFF"/>
</linearGradient>
<linearGradient id="paint1_linear_281_2" x1="159.911" y1="207.314" x2="318.496" y2="207.314" gradientUnits="userSpaceOnUse">
<stop stop-color="#0079FF"/>
<stop offset="0.11048" stop-color="#0B8DFF"/>
<stop offset="0.400916" stop-color="#26BEFF"/>
<stop offset="0.656543" stop-color="#3AE1FF"/>
<stop offset="0.864929" stop-color="#46F7FF"/>
<stop offset="1" stop-color="#4AFFFF"/>
</linearGradient>
<radialGradient id="paint2_radial_281_2" cx="0" cy="0" r="1" gradientUnits="userSpaceOnUse" gradientTransform="translate(313.779 222.642) scale(67.2272 67.2272)">
<stop stop-color="#15FFF2"/>
<stop offset="1" stop-color="#0092FF"/>
</radialGradient>
</defs>
</svg>
