<svg width="20" height="20" viewBox="0 0 20 20" fill="none" xmlns="http://www.w3.org/2000/svg">
<path d="M13.2083 3.20833L14.4167 4.41667L12.6 6.21667C12.275 6.54167 12.275 7.075 12.6 7.4C12.925 7.725 13.4583 7.725 13.7833 7.4L15.5833 5.58333L16.7917 6.79167C17.05 7.05 17.5 6.86667 17.5 6.49167V2.91667C17.5 2.68333 17.3167 2.5 17.0833 2.5H13.5083C13.1333 2.5 12.95 2.95 13.2083 3.20833ZM3.20833 6.79167L4.41667 5.58333L6.21667 7.4C6.54167 7.725 7.075 7.725 7.4 7.4C7.725 7.075 7.725 6.54167 7.4 6.21667L5.58333 4.41667L6.79167 3.20833C7.05 2.95 6.86667 2.5 6.49167 2.5H2.91667C2.68333 2.5 2.5 2.68333 2.5 2.91667V6.49167C2.5 6.86667 2.95 7.05 3.20833 6.79167ZM6.79167 16.7917L5.58333 15.5833L7.4 13.7833C7.725 13.4583 7.725 12.925 7.4 12.6C7.075 12.275 6.54167 12.275 6.21667 12.6L4.41667 14.4167L3.20833 13.2083C2.95 12.95 2.5 13.1333 2.5 13.5083V17.0833C2.5 17.3167 2.68333 17.5 2.91667 17.5H6.49167C6.86667 17.5 7.05 17.05 6.79167 16.7917ZM16.7917 13.2083L15.5833 14.4167L13.7833 12.6C13.4583 12.275 12.925 12.275 12.6 12.6C12.275 12.925 12.275 13.4583 12.6 13.7833L14.4167 15.5833L13.2083 16.7917C12.95 17.05 13.1333 17.5 13.5083 17.5H17.0833C17.3167 17.5 17.5 17.3167 17.5 17.0833V13.5083C17.5 13.1333 17.05 12.95 16.7917 13.2083Z" fill="#797B90"/>
</svg>
